<svg width="28" height="29" viewBox="0 0 28 29" fill="none" xmlns="http://www.w3.org/2000/svg">
<path d="M25.4716 3.97009H3.0716C2.188 3.97009 1.0332 4.07366 1.0332 5.77058V23.1706C1.0332 24.0857 1.2584 24.6844 2.6716 24.6844H25.4716C26.3552 24.6844 26.6332 24.0857 26.6332 23.1706V5.77058C26.6332 4.85542 26.3552 3.97009 25.4716 3.97009ZM25.0332 5.62724V7.69866H2.6332V5.62724H25.0332ZM2.6332 23.0272V8.52724H25.0332V23.0272H2.6332Z" fill="black"/>
<path d="M11.5952 10.1843H5.27042C4.38322 10.1843 4.23322 10.5986 4.23322 11.4972V20.1972C4.23322 20.6546 4.42842 20.9558 4.87042 20.9558H11.5956C12.0372 20.9558 12.2336 21.0689 12.2336 20.6115V11.4972C12.2332 11.0394 12.4084 10.1843 11.5952 10.1843ZM11.4332 20.1272H5.03322V11.0129H11.4332V20.1272Z" fill="black"/>
<path d="M13.3668 11.0129H18.1668C18.388 11.0129 18.5668 10.8277 18.5668 10.5986C18.5668 10.3695 18.388 10.1843 18.1668 10.1843H13.3668C13.1456 10.1843 12.9668 10.3695 12.9668 10.5986C12.9668 10.8277 13.1456 11.0129 13.3668 11.0129Z" fill="black"/>
<path d="M23.3668 10.1843H19.7668C19.5456 10.1843 19.3668 10.3695 19.3668 10.5986C19.3668 10.8277 19.5456 11.0129 19.7668 11.0129H23.3668C23.588 11.0129 23.7668 10.8277 23.7668 10.5986C23.7668 10.3695 23.588 10.1843 23.3668 10.1843Z" fill="black"/>
<path d="M13.3668 13.0844H15.7668C15.988 13.0844 16.1668 12.8992 16.1668 12.6701C16.1668 12.441 15.988 12.2559 15.7668 12.2559H13.3668C13.1456 12.2559 12.9668 12.441 12.9668 12.6701C12.9668 12.8992 13.1456 13.0844 13.3668 13.0844Z" fill="black"/>
<path d="M5.76679 7.28438H6.16679C6.38799 7.28438 6.56679 7.0992 6.56679 6.8701C6.56679 6.641 6.38799 6.45581 6.16679 6.45581H5.76679C5.54559 6.45581 5.36679 6.641 5.36679 6.8701C5.36679 7.0992 5.54559 7.28438 5.76679 7.28438Z" fill="black"/>
<path d="M21.3668 7.28438H21.7668C21.988 7.28438 22.1668 7.0992 22.1668 6.8701C22.1668 6.641 21.988 6.45581 21.7668 6.45581H21.3668C21.1456 6.45581 20.9668 6.641 20.9668 6.8701C20.9668 7.0992 21.1456 7.28438 21.3668 7.28438Z" fill="black"/>
<path d="M20.1668 12.2559H17.3668C17.1456 12.2559 16.9668 12.441 16.9668 12.6701C16.9668 12.8992 17.1456 13.0844 17.3668 13.0844H20.1668C20.388 13.0844 20.5668 12.8992 20.5668 12.6701C20.5668 12.441 20.388 12.2559 20.1668 12.2559Z" fill="black"/>
<path d="M13.3668 15.1558H17.3668C17.588 15.1558 17.7668 14.9707 17.7668 14.7416C17.7668 14.5125 17.588 14.3273 17.3668 14.3273H13.3668C13.1456 14.3273 12.9668 14.5125 12.9668 14.7416C12.9668 14.9707 13.1456 15.1558 13.3668 15.1558Z" fill="black"/>
<path d="M18.5668 14.7416C18.5668 14.9707 18.7456 15.1558 18.9668 15.1558H21.7668C21.988 15.1558 22.1668 14.9707 22.1668 14.7416C22.1668 14.5125 21.988 14.3273 21.7668 14.3273H18.9668C18.7456 14.3273 18.5668 14.5125 18.5668 14.7416Z" fill="black"/>
<path d="M23.3668 12.2559H21.7668C21.5456 12.2559 21.3668 12.441 21.3668 12.6701C21.3668 12.8992 21.5456 13.0844 21.7668 13.0844H23.3668C23.588 13.0844 23.7668 12.8992 23.7668 12.6701C23.7668 12.441 23.588 12.2559 23.3668 12.2559Z" fill="black"/>
<path d="M13.3668 18.4701H16.5668C16.788 18.4701 16.9668 18.2849 16.9668 18.0558C16.9668 17.8267 16.788 17.6415 16.5668 17.6415H13.3668C13.1456 17.6415 12.9668 17.8267 12.9668 18.0558C12.9668 18.2849 13.1456 18.4701 13.3668 18.4701Z" fill="black"/>
<path d="M23.3668 17.6415H18.1668C17.9456 17.6415 17.7668 17.8267 17.7668 18.0558C17.7668 18.2849 17.9456 18.4701 18.1668 18.4701H23.3668C23.588 18.4701 23.7668 18.2849 23.7668 18.0558C23.7668 17.8267 23.588 17.6415 23.3668 17.6415Z" fill="black"/>
<path d="M19.3668 19.7129H13.3668C13.1456 19.7129 12.9668 19.8981 12.9668 20.1272C12.9668 20.3563 13.1456 20.5415 13.3668 20.5415H19.3668C19.588 20.5415 19.7668 20.3563 19.7668 20.1272C19.7668 19.8981 19.588 19.7129 19.3668 19.7129Z" fill="black"/>
<path d="M23.3668 19.7129H20.9668C20.7456 19.7129 20.5668 19.8981 20.5668 20.1272C20.5668 20.3563 20.7456 20.5415 20.9668 20.5415H23.3668C23.588 20.5415 23.7668 20.3563 23.7668 20.1272C23.7668 19.8981 23.588 19.7129 23.3668 19.7129Z" fill="black"/>
</svg>
