<svg width="27" height="26" viewBox="0 0 27 26" fill="none" xmlns="http://www.w3.org/2000/svg">
<path d="M4.93272 11.0999H14.5022L18.7048 7.05312L18.7443 7.01509V6.34985H4.93272V11.0999Z" fill="black"/>
<path d="M21.2105 22.025H2.46639V3.97489H21.2105V4.64475L23.6768 2.87274V1.59985H0V24.4H23.6768V14.6861L21.2105 17.0611V22.025Z" fill="black"/>
<path d="M12.0951 13.95H4.93272V15.375H11.286C11.5278 14.8716 11.8089 14.3869 12.0951 13.95Z" fill="black"/>
<path d="M4.93272 17.75V19.175H10.7828C10.6101 18.7284 10.5559 18.244 10.5904 17.75H4.93272Z" fill="black"/>
<path d="M15.3425 13.6494C14.5251 14.4366 12.4098 17.7505 13.2273 18.5381C14.0452 19.3258 17.4861 17.2885 18.3041 16.5013L21.6661 13.263L18.7048 10.4116L15.3425 13.6494Z" fill="black"/>
<path d="M26.3869 5.86568C25.5689 5.07847 24.2433 5.07847 23.4259 5.86568L19.3821 9.75984L22.3434 12.6112L26.3869 8.71704C27.2043 7.92988 27.2043 6.65329 26.3869 5.86568ZM21.1025 10.2761L20.5944 9.78721L23.4253 7.06107L23.9326 7.54948L21.1025 10.2761Z" fill="black"/>
</svg>
