<svg width="27" height="26" viewBox="0 0 27 26" fill="none" xmlns="http://www.w3.org/2000/svg">
<g clip-path="url(#clip0_1_207)">
<path d="M22.3994 15.5992H15.461V21.3368H22.3994V15.5992Z" fill="black"/>
<path d="M12.7454 15.686H4.60071V16.5575H12.7454V15.686Z" fill="black"/>
<path d="M12.7454 20.3784H4.60071V21.2499H12.7454V20.3784Z" fill="black"/>
<path d="M12.7454 18.0325H4.60071V18.904H12.7454V18.0325Z" fill="black"/>
<mask id="path-5-inside-1_1_207" fill="white">
<path d="M21.9601 0.000244141H5.04035C2.25635 0.000701172 0.00084375 2.17307 0 4.85356V20.2751C0.00131836 23.4368 2.66113 25.999 5.94538 25.9998H21.055C24.3388 25.999 26.9991 23.4372 27 20.2751V4.85356C26.9996 2.17307 24.7436 0.000701172 21.9601 0.000244141ZM24.5112 20.2751C24.5108 21.1967 24.1258 22.0232 23.4988 22.6283C22.8704 23.2321 22.0122 23.6028 21.0551 23.6032H5.94538C4.98825 23.6027 4.12958 23.2321 3.50125 22.6283C2.87413 22.0232 2.4897 21.1967 2.48885 20.2751V6.02757H24.5113L24.5112 20.2751Z"/>
</mask>
<path d="M21.9601 0.000244141H5.04035C2.25635 0.000701172 0.00084375 2.17307 0 4.85356V20.2751C0.00131836 23.4368 2.66113 25.999 5.94538 25.9998H21.055C24.3388 25.999 26.9991 23.4372 27 20.2751V4.85356C26.9996 2.17307 24.7436 0.000701172 21.9601 0.000244141ZM24.5112 20.2751C24.5108 21.1967 24.1258 22.0232 23.4988 22.6283C22.8704 23.2321 22.0122 23.6028 21.0551 23.6032H5.94538C4.98825 23.6027 4.12958 23.2321 3.50125 22.6283C2.87413 22.0232 2.4897 21.1967 2.48885 20.2751V6.02757H24.5113L24.5112 20.2751Z" fill="black"/>
<path d="M21.9601 0.000244141L21.9638 -22.9998H21.9601V0.000244141ZM5.04035 0.000244141V-22.9998H5.03658L5.04035 0.000244141ZM0 4.85356L-23 4.84632V4.85356H0ZM0 20.2751H-23L-23 20.2847L0 20.2751ZM5.94538 25.9998L5.93933 48.9998H5.94538V25.9998ZM21.055 25.9998V48.9998L21.0611 48.9998L21.055 25.9998ZM27 20.2751L50 20.2816V20.2751H27ZM27 4.85356H50V4.84994L27 4.85356ZM24.5112 20.2751L47.5112 20.2856V20.2752L24.5112 20.2751ZM23.4988 22.6283L39.4352 39.2124L39.4529 39.1953L39.4706 39.1782L23.4988 22.6283ZM21.0551 23.6032V46.6032L21.0649 46.6032L21.0551 23.6032ZM5.94538 23.6032L5.9344 46.6032H5.94538V23.6032ZM3.50125 22.6283L-12.4692 39.1796L-12.4522 39.196L-12.4351 39.2124L3.50125 22.6283ZM2.48885 20.2751H-20.5111V20.2856L-20.5111 20.2961L2.48885 20.2751ZM2.48885 6.02757V-16.9724H-20.5111V6.02757H2.48885ZM24.5113 6.02757L47.5113 6.02766L47.5113 -16.9724H24.5113V6.02757ZM21.9601 -22.9998H5.04035V23.0002H21.9601V-22.9998ZM5.03658 -22.9998C-9.6235 -22.9973 -22.9949 -11.3393 -23 4.84632L23 4.8608C22.9966 15.6854 14.1362 22.9988 5.04413 23.0002L5.03658 -22.9998ZM-23 4.85356V20.2751H23V4.85356H-23ZM-23 20.2847C-22.993 36.9485 -9.22039 48.9959 5.93933 48.9998L5.95142 2.99984C14.5427 3.0021 22.9957 9.92508 23 20.2655L-23 20.2847ZM5.94538 48.9998H21.055V2.99984H5.94538V48.9998ZM21.0611 48.9998C36.2173 48.9959 49.9953 36.9511 50 20.2816L4 20.2685C4.00293 9.92329 12.4603 3.0021 21.049 2.99984L21.0611 48.9998ZM50 20.2751V4.85356H4V20.2751H50ZM50 4.84994C49.9975 -11.3406 36.6212 -22.9973 21.9638 -22.9998L21.9563 23.0002C12.866 22.9988 4.0017 15.6868 4 4.85718L50 4.84994ZM1.5112 20.2645C1.51382 14.5459 3.96315 9.51766 7.52697 6.07832L39.4706 39.1782C44.2885 34.5287 47.5077 27.8476 47.5112 20.2856L1.5112 20.2645ZM7.56244 6.04417C11.1197 2.62586 15.9326 0.605337 21.0453 0.603167L21.0649 46.6032C28.0918 46.6002 34.6212 43.8384 39.4352 39.2124L7.56244 6.04417ZM21.0551 0.603165H5.94538V46.6032H21.0551V0.603165ZM5.95636 0.603167C11.0647 0.605606 15.8777 2.62329 19.4376 6.04417L-12.4351 39.2124C-7.61854 43.8408 -1.08815 46.5998 5.9344 46.6032L5.95636 0.603167ZM19.4717 6.07698C23.0437 9.52366 25.4836 14.5517 25.4888 20.254L-20.5111 20.2961C-20.5042 27.8418 -17.2955 34.5227 -12.4692 39.1796L19.4717 6.07698ZM25.4889 20.2751V6.02757H-20.5111V20.2751H25.4889ZM2.48885 29.0276H24.5113V-16.9724H2.48885V29.0276ZM1.51125 6.02749L1.5112 20.275L47.5112 20.2752L47.5113 6.02766L1.51125 6.02749Z" fill="black" mask="url(#path-5-inside-1_1_207)"/>
<path d="M4.69124 13.6048H6.51496C7.55435 13.6048 8.18358 13.169 8.18358 12.2566C8.18358 11.7055 7.85837 11.3239 7.54022 11.2081V11.1945C7.85842 11.0243 8.09878 10.7111 8.09878 10.2077C8.09878 9.47193 7.61094 8.97534 6.56495 8.97534H4.69124C4.64927 8.97534 4.621 9.00256 4.621 9.04339V13.5363C4.621 13.5775 4.64927 13.6048 4.69124 13.6048ZM5.6604 9.82598C5.6604 9.79917 5.67363 9.78515 5.7028 9.78515H6.43812C6.83363 9.78515 7.06698 9.98259 7.06698 10.3226C7.06698 10.6635 6.83363 10.8677 6.43812 10.8677H5.7028C5.67363 10.8677 5.6604 10.8541 5.6604 10.8269V9.82598ZM5.6604 11.6775C5.6604 11.6507 5.67363 11.6371 5.7028 11.6371H6.49381C6.9189 11.6371 7.14471 11.8617 7.14471 12.2163C7.14471 12.5766 6.9189 12.795 6.49381 12.795H5.7028C5.67363 12.795 5.6604 12.7809 5.6604 12.7537V11.6775Z" fill="black"/>
<path d="M9.57213 13.6047H12.7048C12.7467 13.6047 12.775 13.5775 12.775 13.5362V12.7809C12.775 12.7396 12.7467 12.7128 12.7048 12.7128H10.5836C10.5549 12.7128 10.5412 12.6992 10.5412 12.6716V9.04339C10.5412 9.00256 10.5133 8.97534 10.4705 8.97534H9.57207C9.52962 8.97534 9.50183 9.00256 9.50183 9.04339V13.5363C9.50183 13.5774 9.52968 13.6047 9.57213 13.6047Z" fill="black"/>
<path d="M15.4358 13.6792C16.2776 13.6792 16.9418 13.3052 17.1893 12.5562C17.2953 12.2362 17.3231 11.9775 17.3231 11.2898C17.3231 10.6021 17.2953 10.3434 17.1893 10.0234C16.9418 9.2749 16.2776 8.90039 15.4358 8.90039C14.5944 8.90039 13.9298 9.2749 13.6827 10.0234C13.5762 10.3434 13.5479 10.6021 13.5479 11.2898C13.5479 11.9775 13.5762 12.2362 13.6827 12.5562C13.9297 13.3052 14.5944 13.6792 15.4358 13.6792ZM14.6792 10.2958C14.7852 9.97579 15.0403 9.78515 15.4357 9.78515C15.8317 9.78515 16.0862 9.97579 16.1923 10.2958C16.2488 10.4596 16.27 10.6834 16.27 11.2899C16.27 11.8954 16.2488 12.1205 16.1923 12.2835C16.0862 12.6039 15.8317 12.795 15.4357 12.795C15.0402 12.795 14.7852 12.6039 14.6792 12.2835C14.6231 12.1205 14.6014 11.8954 14.6014 11.2899C14.6014 10.6834 14.6231 10.4596 14.6792 10.2958Z" fill="black"/>
<path d="M20.4589 13.6792C21.3069 13.6792 21.9716 13.2643 22.2124 12.5217C22.2967 12.2702 22.3317 11.889 22.3317 11.4804V11.0987C22.3317 11.0587 22.3034 11.031 22.2614 11.031H20.6074C20.5645 11.031 20.5362 11.0587 20.5362 11.0987V11.7532C20.5362 11.7936 20.5645 11.8208 20.6074 11.8208H21.2574C21.2857 11.8208 21.2998 11.8349 21.2998 11.8617C21.2998 12.0587 21.2786 12.2021 21.2433 12.3183C21.1442 12.6243 20.8331 12.7949 20.4726 12.7949C20.0555 12.7949 19.7934 12.6038 19.6873 12.2834C19.6312 12.1204 19.61 11.8953 19.61 11.2898C19.61 10.6834 19.6312 10.466 19.6873 10.3026C19.7934 9.98254 20.0484 9.7851 20.4589 9.7851C20.8544 9.7851 21.0943 9.94852 21.2857 10.2617C21.2998 10.2957 21.3352 10.3094 21.3851 10.2957L22.1412 9.98934C22.1832 9.96893 22.1912 9.9281 22.1695 9.88682C21.9428 9.32848 21.3564 8.90039 20.4588 8.90039C19.6028 8.90039 18.9382 9.2749 18.6908 10.0234C18.5847 10.3434 18.556 10.6021 18.556 11.2898C18.556 11.9775 18.5848 12.2362 18.6908 12.5562C18.9383 13.3052 19.6029 13.6792 20.4589 13.6792Z" fill="black"/>
</g>
<defs>
<clipPath id="clip0_1_207">
<rect width="27" height="26" fill="white"/>
</clipPath>
</defs>
</svg>
