<svg width="32" height="30" viewBox="0 0 32 30" fill="none" xmlns="http://www.w3.org/2000/svg">
<path d="M10.6667 10H8.26693C6.77345 10 6.02616 10 5.45573 10.2725C4.95396 10.5122 4.54631 10.8943 4.29065 11.3647C4 11.8995 4 12.6001 4 14.0002V21.0002C4 22.4004 4 23.1001 4.29065 23.6349C4.54631 24.1052 4.95396 24.4881 5.45573 24.7277C6.0256 25 6.77199 25 8.26255 25H23.7375C25.228 25 25.9733 25 26.5432 24.7277C27.0449 24.4881 27.454 24.1052 27.7096 23.6349C28 23.1006 28 22.4019 28 21.0045V13.9961C28 12.5987 28 11.899 27.7096 11.3647C27.454 10.8943 27.0449 10.5122 26.5432 10.2725C25.9728 10 25.2271 10 23.7336 10H21.3333M10.6667 10H21.3333M10.6667 10C10.6667 7.23857 13.0545 5 16 5C18.9455 5 21.3333 7.23857 21.3333 10" stroke="black" stroke-width="1.75" stroke-linecap="round" stroke-linejoin="round"/>
</svg>
