<svg width="27" height="26" viewBox="0 0 27 26" fill="none" xmlns="http://www.w3.org/2000/svg">
<mask id="path-1-inside-1_1_218" fill="white">
<path d="M17.5534 18.8808C17.5534 19.2197 17.2437 19.5593 16.8733 19.5357C16.562 19.517 16.2506 19.5122 15.9393 19.4943C15.649 19.4797 15.3588 19.4642 15.0668 19.4561C13.6898 19.4195 12.3095 19.448 10.9308 19.448C10.2161 19.448 9.49978 19.4496 8.78344 19.4593C8.01141 19.4707 7.24781 19.5365 6.48 19.6283C6.3045 19.6487 6.0961 19.5414 5.97713 19.4277C5.84635 19.3001 5.77041 19.1246 5.77041 18.9434C5.77041 18.763 5.8455 18.5883 5.97713 18.4608C6.1231 18.3218 6.28341 18.2828 6.48 18.2601C7.14488 18.1853 7.80553 18.1447 8.47463 18.1447C8.51091 18.1447 8.54803 18.1447 8.58432 18.1447C10.0052 18.1545 11.4269 18.1634 12.8478 18.1699C13.1279 18.1715 13.4097 18.1699 13.6924 18.1683C14.0763 18.1667 14.4593 18.1634 14.8449 18.1683C15.5216 18.178 16.1958 18.2284 16.8725 18.2235C17.2437 18.2227 17.5534 18.5242 17.5534 18.8808ZM17.1104 15.2384C16.7856 15.2417 16.4616 15.262 16.1367 15.262C15.7823 15.2636 15.4271 15.262 15.0711 15.262C14.3809 15.2652 13.6907 15.2668 12.9988 15.2555C11.5172 15.2303 10.0339 15.2002 8.55141 15.1433C7.67307 15.11 6.79388 15.0532 5.91553 15.0174C5.90625 15.0166 5.89613 15.0166 5.88685 15.0166C5.508 15.0166 5.19581 15.353 5.19581 15.7088C5.19581 16.0956 5.52403 16.3873 5.91553 16.4003C6.72891 16.4271 7.54144 16.4417 8.35482 16.462C9.08635 16.4791 9.81535 16.5108 10.5452 16.5295C11.9914 16.5677 13.4333 16.6351 14.8778 16.657C15.2499 16.6635 15.622 16.6619 15.9941 16.6619C16.1232 16.6619 16.2532 16.6635 16.3823 16.6635C16.6253 16.6652 16.8674 16.6668 17.1104 16.6587C17.512 16.6465 17.8478 16.345 17.8478 15.9485C17.8478 15.5634 17.512 15.2335 17.1104 15.2384ZM5.31563 12.7676C5.30888 12.3459 5.33335 11.925 5.34178 11.5033C5.34853 11.0711 5.36794 10.6405 5.38735 10.2074C5.42953 9.3096 5.42363 8.4126 5.43628 7.51479C5.43966 7.22554 5.62444 6.97204 5.88685 6.86316C6.01594 6.69741 6.21085 6.58122 6.43866 6.58285C6.98119 6.5861 7.52203 6.5926 8.06456 6.59991C9.50738 6.61697 10.9477 6.60479 12.3905 6.59504C13.1001 6.58854 13.808 6.58041 14.5184 6.5731C14.7285 6.56985 14.9378 6.56579 15.1478 6.56579C15.2727 6.56579 15.3976 6.56741 15.5233 6.57147C15.6819 6.57635 15.8431 6.58854 16.0017 6.60154C16.2017 6.6186 16.405 6.63647 16.5966 6.69172C16.9037 6.78191 17.102 7.0541 17.0986 7.35391C17.2007 7.47741 17.2699 7.62854 17.2808 7.79835C17.3281 8.57672 17.3365 9.3551 17.3382 10.1327C17.3382 10.8858 17.3543 11.639 17.3467 12.3914C17.3416 12.7692 17.0235 13.0853 16.6269 13.0893C16.508 13.299 16.2844 13.4485 16.022 13.4485C15.6355 13.4485 15.2499 13.442 14.8627 13.442C13.4561 13.4387 12.0479 13.4403 10.6414 13.4403C9.12769 13.4403 7.61231 13.4574 6.09947 13.4322C6.07247 13.4355 6.04885 13.4477 6.021 13.4477C5.63372 13.4501 5.32238 13.1389 5.31563 12.7676ZM6.89091 7.92835C6.84956 9.30472 6.78881 10.6795 6.75338 12.055C6.993 12.0615 7.23178 12.068 7.47141 12.0737C8.9235 12.107 10.3748 12.107 11.8268 12.107C12.5516 12.107 13.2739 12.1038 13.9987 12.1038C14.6306 12.1038 15.2634 12.0948 15.8963 12.107C15.9022 11.4489 15.9089 10.7916 15.9064 10.1343C15.9022 9.40629 15.8617 8.68154 15.811 7.95597C15.5883 7.94379 15.3664 7.93322 15.1428 7.93241C13.7607 7.92104 12.3803 7.90397 11.0008 7.9056C10.7274 7.90722 10.4549 7.9056 10.1815 7.9056C9.7276 7.90397 9.27366 7.90235 8.82141 7.90722C8.17847 7.91372 7.53469 7.92185 6.89091 7.92835ZM25.2847 13.9018C25.2813 14.6047 25.2998 15.3083 25.2965 16.0119C25.2948 16.3588 25.2847 16.7082 25.2619 17.0535C25.2374 17.4037 25.1918 17.7515 25.1589 18.1C25.126 18.4445 25.1117 18.7898 25.0822 19.1335C25.0493 19.5235 24.9868 19.9152 24.8999 20.2987C24.829 20.6115 24.759 20.9316 24.6426 21.2314C24.5624 21.4337 24.4806 21.6385 24.3751 21.8294C24.3034 21.957 24.2173 22.0788 24.1355 22.2015C23.9701 22.4461 23.6815 22.5737 23.3963 22.5298C23.2774 22.6817 23.0943 22.7833 22.8808 22.7971C22.5501 22.819 22.2185 22.8288 21.886 22.8458C21.5452 22.8621 21.2026 22.8808 20.8617 22.8824C20.1833 22.8873 19.5058 22.8857 18.8274 22.8962C18.1567 22.9076 17.4867 22.9295 16.8159 22.9344C15.4288 22.9442 14.0408 22.9661 12.6537 22.9515C11.2523 22.9368 9.85078 22.906 8.451 22.8946C7.09425 22.8857 5.7181 22.8068 4.36894 22.9726C4.26347 22.9864 4.158 23.0002 4.05253 23.014C4.03735 23.0165 4.023 23.0189 4.00781 23.0213C3.88294 23.053 3.75891 23.053 3.63403 23.0213C3.59775 23.0108 3.5716 22.9823 3.53785 22.9677C3.37838 22.9888 3.213 22.971 3.07294 22.8913C2.89913 22.7922 2.80885 22.65 2.7405 22.4729C2.6325 22.2015 2.55403 21.9172 2.46797 21.6377C2.38106 21.35 2.30091 21.06 2.24522 20.7667C2.17435 20.3897 2.11528 20.0094 2.06297 19.6292C2.04947 19.5772 2.04188 19.5235 2.04103 19.4699C2.00306 19.1888 1.96847 18.9068 1.93388 18.6257C1.85203 17.9473 1.81575 17.2697 1.7896 16.588C1.73897 15.2319 1.71281 13.8726 1.7145 12.5157C1.71619 11.119 1.67822 9.72154 1.69172 8.32485C1.69847 7.60497 1.71956 6.88672 1.73728 6.16685C1.75753 5.41772 1.76766 4.6686 1.78875 3.91866C1.7896 3.89347 1.80225 3.87072 1.80478 3.84635C1.78791 3.78622 1.76597 3.72854 1.76597 3.66354C1.76597 3.29304 2.08997 2.95422 2.48063 2.95422C2.48738 2.95422 2.49497 2.95422 2.50172 2.95422C2.91178 2.96722 3.32269 2.98104 3.73275 2.99566C4.06266 3.00622 4.39341 3.0046 4.72331 3.02085C5.4135 3.05254 6.09863 3.12972 6.78881 3.14354C7.48744 3.15816 8.18522 3.16547 8.88216 3.16547C10.2954 3.16547 11.7062 3.14354 13.1195 3.12566C14.5403 3.10697 15.9621 3.04847 17.3829 3.0306C18.0647 3.02247 18.7464 3.00866 19.429 3.00541C20.0703 3.00216 20.7141 2.98022 21.3553 2.99891C21.7223 3.01029 22.0303 3.28654 22.0303 3.64972C22.0303 3.80247 21.962 3.94791 21.8607 4.06491C21.8649 4.09254 21.8784 4.11691 21.8801 4.14454C21.9299 4.8571 21.9375 5.56722 21.9375 6.27816C22.8057 6.28304 23.6748 6.29929 24.5438 6.30497C24.8527 6.3066 25.1058 6.51541 25.1843 6.79166C25.2619 6.90216 25.3176 7.02729 25.3125 7.16785C25.2948 7.74391 25.2416 8.31997 25.2273 8.89604C25.2138 9.45341 25.2011 10.0108 25.2222 10.5673C25.2433 11.1198 25.2779 11.6707 25.2897 12.2232C25.3007 12.7822 25.288 13.3412 25.2847 13.9018ZM20.9073 21.6393C21.0389 21.6336 21.1705 21.6255 21.3013 21.6165C21.0575 21.3403 20.8373 21.051 20.6854 20.7179C20.6035 20.54 20.5217 20.3547 20.4787 20.1605C20.4348 19.9631 20.4086 19.7616 20.3901 19.5577C20.3875 19.5284 20.3901 19.5 20.3892 19.4707C20.3664 19.3667 20.3588 19.2595 20.3825 19.1498C20.3892 18.9068 20.3572 18.6598 20.3428 18.4202C20.3276 18.1927 20.3217 17.9652 20.3234 17.7385C20.3251 17.2363 20.3394 16.7342 20.3496 16.2313C20.3707 15.2319 20.3842 14.2333 20.3875 13.234C20.3892 12.4824 20.3875 11.7317 20.4027 10.9817C20.4162 10.2553 20.4702 9.53141 20.4829 8.80666C20.4972 8.03316 20.4964 7.25966 20.4829 6.48616C20.4702 5.75247 20.4179 5.02122 20.3605 4.28916C20.0593 4.28672 19.7581 4.27291 19.4577 4.27779C18.7853 4.28835 18.1136 4.30135 17.4412 4.30135C16.7214 4.30135 16.0017 4.33304 15.282 4.36472C14.5808 4.39641 13.8788 4.40291 13.1743 4.41022C12.4647 4.41835 11.7568 4.43704 11.0464 4.4541C10.3317 4.47279 9.61706 4.46385 8.90241 4.46385C8.20378 4.46385 7.506 4.46872 6.80569 4.47197C6.46481 4.47197 6.12056 4.4736 5.77969 4.44841C5.43375 4.4216 5.09119 4.38097 4.74356 4.37122C4.40775 4.36229 4.06941 4.3761 3.7336 4.37935C3.56653 4.38016 3.39947 4.3761 3.23241 4.37529C3.16744 5.68341 3.06366 6.98991 3.04256 8.30047C3.02147 9.64841 3.0856 10.9963 3.09825 12.3443C3.11175 13.7174 3.11344 15.0922 3.16913 16.4645C3.19697 17.1372 3.2265 17.8092 3.30497 18.4787C3.32438 18.6412 3.34716 18.802 3.3691 18.9645C3.3826 19.0482 3.39188 19.1335 3.40369 19.2188C3.41213 19.2806 3.4231 19.3407 3.429 19.4008C3.49988 19.8932 3.57497 20.3905 3.71166 20.8715C3.78928 21.1445 3.89306 21.411 3.99094 21.6783C4.806 21.5889 5.62275 21.6011 6.44288 21.6011C7.83928 21.6011 9.23569 21.6482 10.6329 21.6734C12.031 21.6986 13.4325 21.7018 14.8323 21.6986C15.1225 21.6986 15.4145 21.6986 15.7056 21.6986C16.0937 21.6986 16.4843 21.7002 16.8742 21.6953C17.5593 21.6888 18.2444 21.6588 18.9295 21.6515C19.1768 21.6498 19.4265 21.6515 19.6737 21.6515C20.0863 21.6547 20.4955 21.658 20.9073 21.6393ZM23.8385 11.5415C23.83 11.1751 23.8056 10.8103 23.8073 10.4447C23.8089 10.1058 23.8123 9.7646 23.8157 9.42497C23.8182 8.81885 23.8317 8.21435 23.8418 7.60904C23.6486 7.60904 23.4554 7.60985 23.2613 7.6131C22.8192 7.62122 22.3763 7.62854 21.9324 7.63179C21.9299 8.12904 21.9265 8.6271 21.9105 9.12435C21.8945 9.62972 21.8675 10.1327 21.8582 10.6364C21.8447 11.3896 21.8531 12.1428 21.8548 12.8952C21.8565 13.6232 21.8565 14.3503 21.87 15.0767C21.8818 15.7885 21.8751 16.497 21.8649 17.2095C21.8616 17.5443 21.8514 17.8807 21.8548 18.2162C21.8582 18.4015 21.8616 18.5843 21.8725 18.7687C21.8793 18.8524 21.886 18.9345 21.8936 19.0182C21.9088 19.1888 21.8987 19.3432 21.8641 19.5154C21.8523 19.5731 21.8168 19.6178 21.789 19.6682C21.816 19.7852 21.8422 19.9013 21.886 20.0151C21.9637 20.1695 22.0539 20.3125 22.1586 20.4514C22.2969 20.6163 22.4421 20.7756 22.6083 20.9145C22.7576 21.012 22.912 21.0941 23.0791 21.164C23.0808 21.1648 23.0825 21.1664 23.0842 21.1672C23.112 21.1152 23.1466 21.0665 23.1719 21.0128C23.3483 20.5611 23.4461 20.0817 23.5229 19.6064C23.56 19.3131 23.5837 19.0198 23.6031 18.724C23.6242 18.399 23.6638 18.0789 23.7001 17.7547C23.7752 17.082 23.8064 16.4117 23.8013 15.734C23.7895 14.3373 23.8697 12.939 23.8385 11.5415Z"/>
</mask>
<path d="M17.5534 18.8808C17.5534 19.2197 17.2437 19.5593 16.8733 19.5357C16.562 19.517 16.2506 19.5122 15.9393 19.4943C15.649 19.4797 15.3588 19.4642 15.0668 19.4561C13.6898 19.4195 12.3095 19.448 10.9308 19.448C10.2161 19.448 9.49978 19.4496 8.78344 19.4593C8.01141 19.4707 7.24781 19.5365 6.48 19.6283C6.3045 19.6487 6.0961 19.5414 5.97713 19.4277C5.84635 19.3001 5.77041 19.1246 5.77041 18.9434C5.77041 18.763 5.8455 18.5883 5.97713 18.4608C6.1231 18.3218 6.28341 18.2828 6.48 18.2601C7.14488 18.1853 7.80553 18.1447 8.47463 18.1447C8.51091 18.1447 8.54803 18.1447 8.58432 18.1447C10.0052 18.1545 11.4269 18.1634 12.8478 18.1699C13.1279 18.1715 13.4097 18.1699 13.6924 18.1683C14.0763 18.1667 14.4593 18.1634 14.8449 18.1683C15.5216 18.178 16.1958 18.2284 16.8725 18.2235C17.2437 18.2227 17.5534 18.5242 17.5534 18.8808ZM17.1104 15.2384C16.7856 15.2417 16.4616 15.262 16.1367 15.262C15.7823 15.2636 15.4271 15.262 15.0711 15.262C14.3809 15.2652 13.6907 15.2668 12.9988 15.2555C11.5172 15.2303 10.0339 15.2002 8.55141 15.1433C7.67307 15.11 6.79388 15.0532 5.91553 15.0174C5.90625 15.0166 5.89613 15.0166 5.88685 15.0166C5.508 15.0166 5.19581 15.353 5.19581 15.7088C5.19581 16.0956 5.52403 16.3873 5.91553 16.4003C6.72891 16.4271 7.54144 16.4417 8.35482 16.462C9.08635 16.4791 9.81535 16.5108 10.5452 16.5295C11.9914 16.5677 13.4333 16.6351 14.8778 16.657C15.2499 16.6635 15.622 16.6619 15.9941 16.6619C16.1232 16.6619 16.2532 16.6635 16.3823 16.6635C16.6253 16.6652 16.8674 16.6668 17.1104 16.6587C17.512 16.6465 17.8478 16.345 17.8478 15.9485C17.8478 15.5634 17.512 15.2335 17.1104 15.2384ZM5.31563 12.7676C5.30888 12.3459 5.33335 11.925 5.34178 11.5033C5.34853 11.0711 5.36794 10.6405 5.38735 10.2074C5.42953 9.3096 5.42363 8.4126 5.43628 7.51479C5.43966 7.22554 5.62444 6.97204 5.88685 6.86316C6.01594 6.69741 6.21085 6.58122 6.43866 6.58285C6.98119 6.5861 7.52203 6.5926 8.06456 6.59991C9.50738 6.61697 10.9477 6.60479 12.3905 6.59504C13.1001 6.58854 13.808 6.58041 14.5184 6.5731C14.7285 6.56985 14.9378 6.56579 15.1478 6.56579C15.2727 6.56579 15.3976 6.56741 15.5233 6.57147C15.6819 6.57635 15.8431 6.58854 16.0017 6.60154C16.2017 6.6186 16.405 6.63647 16.5966 6.69172C16.9037 6.78191 17.102 7.0541 17.0986 7.35391C17.2007 7.47741 17.2699 7.62854 17.2808 7.79835C17.3281 8.57672 17.3365 9.3551 17.3382 10.1327C17.3382 10.8858 17.3543 11.639 17.3467 12.3914C17.3416 12.7692 17.0235 13.0853 16.6269 13.0893C16.508 13.299 16.2844 13.4485 16.022 13.4485C15.6355 13.4485 15.2499 13.442 14.8627 13.442C13.4561 13.4387 12.0479 13.4403 10.6414 13.4403C9.12769 13.4403 7.61231 13.4574 6.09947 13.4322C6.07247 13.4355 6.04885 13.4477 6.021 13.4477C5.63372 13.4501 5.32238 13.1389 5.31563 12.7676ZM6.89091 7.92835C6.84956 9.30472 6.78881 10.6795 6.75338 12.055C6.993 12.0615 7.23178 12.068 7.47141 12.0737C8.9235 12.107 10.3748 12.107 11.8268 12.107C12.5516 12.107 13.2739 12.1038 13.9987 12.1038C14.6306 12.1038 15.2634 12.0948 15.8963 12.107C15.9022 11.4489 15.9089 10.7916 15.9064 10.1343C15.9022 9.40629 15.8617 8.68154 15.811 7.95597C15.5883 7.94379 15.3664 7.93322 15.1428 7.93241C13.7607 7.92104 12.3803 7.90397 11.0008 7.9056C10.7274 7.90722 10.4549 7.9056 10.1815 7.9056C9.7276 7.90397 9.27366 7.90235 8.82141 7.90722C8.17847 7.91372 7.53469 7.92185 6.89091 7.92835ZM25.2847 13.9018C25.2813 14.6047 25.2998 15.3083 25.2965 16.0119C25.2948 16.3588 25.2847 16.7082 25.2619 17.0535C25.2374 17.4037 25.1918 17.7515 25.1589 18.1C25.126 18.4445 25.1117 18.7898 25.0822 19.1335C25.0493 19.5235 24.9868 19.9152 24.8999 20.2987C24.829 20.6115 24.759 20.9316 24.6426 21.2314C24.5624 21.4337 24.4806 21.6385 24.3751 21.8294C24.3034 21.957 24.2173 22.0788 24.1355 22.2015C23.9701 22.4461 23.6815 22.5737 23.3963 22.5298C23.2774 22.6817 23.0943 22.7833 22.8808 22.7971C22.5501 22.819 22.2185 22.8288 21.886 22.8458C21.5452 22.8621 21.2026 22.8808 20.8617 22.8824C20.1833 22.8873 19.5058 22.8857 18.8274 22.8962C18.1567 22.9076 17.4867 22.9295 16.8159 22.9344C15.4288 22.9442 14.0408 22.9661 12.6537 22.9515C11.2523 22.9368 9.85078 22.906 8.451 22.8946C7.09425 22.8857 5.7181 22.8068 4.36894 22.9726C4.26347 22.9864 4.158 23.0002 4.05253 23.014C4.03735 23.0165 4.023 23.0189 4.00781 23.0213C3.88294 23.053 3.75891 23.053 3.63403 23.0213C3.59775 23.0108 3.5716 22.9823 3.53785 22.9677C3.37838 22.9888 3.213 22.971 3.07294 22.8913C2.89913 22.7922 2.80885 22.65 2.7405 22.4729C2.6325 22.2015 2.55403 21.9172 2.46797 21.6377C2.38106 21.35 2.30091 21.06 2.24522 20.7667C2.17435 20.3897 2.11528 20.0094 2.06297 19.6292C2.04947 19.5772 2.04188 19.5235 2.04103 19.4699C2.00306 19.1888 1.96847 18.9068 1.93388 18.6257C1.85203 17.9473 1.81575 17.2697 1.7896 16.588C1.73897 15.2319 1.71281 13.8726 1.7145 12.5157C1.71619 11.119 1.67822 9.72154 1.69172 8.32485C1.69847 7.60497 1.71956 6.88672 1.73728 6.16685C1.75753 5.41772 1.76766 4.6686 1.78875 3.91866C1.7896 3.89347 1.80225 3.87072 1.80478 3.84635C1.78791 3.78622 1.76597 3.72854 1.76597 3.66354C1.76597 3.29304 2.08997 2.95422 2.48063 2.95422C2.48738 2.95422 2.49497 2.95422 2.50172 2.95422C2.91178 2.96722 3.32269 2.98104 3.73275 2.99566C4.06266 3.00622 4.39341 3.0046 4.72331 3.02085C5.4135 3.05254 6.09863 3.12972 6.78881 3.14354C7.48744 3.15816 8.18522 3.16547 8.88216 3.16547C10.2954 3.16547 11.7062 3.14354 13.1195 3.12566C14.5403 3.10697 15.9621 3.04847 17.3829 3.0306C18.0647 3.02247 18.7464 3.00866 19.429 3.00541C20.0703 3.00216 20.7141 2.98022 21.3553 2.99891C21.7223 3.01029 22.0303 3.28654 22.0303 3.64972C22.0303 3.80247 21.962 3.94791 21.8607 4.06491C21.8649 4.09254 21.8784 4.11691 21.8801 4.14454C21.9299 4.8571 21.9375 5.56722 21.9375 6.27816C22.8057 6.28304 23.6748 6.29929 24.5438 6.30497C24.8527 6.3066 25.1058 6.51541 25.1843 6.79166C25.2619 6.90216 25.3176 7.02729 25.3125 7.16785C25.2948 7.74391 25.2416 8.31997 25.2273 8.89604C25.2138 9.45341 25.2011 10.0108 25.2222 10.5673C25.2433 11.1198 25.2779 11.6707 25.2897 12.2232C25.3007 12.7822 25.288 13.3412 25.2847 13.9018ZM20.9073 21.6393C21.0389 21.6336 21.1705 21.6255 21.3013 21.6165C21.0575 21.3403 20.8373 21.051 20.6854 20.7179C20.6035 20.54 20.5217 20.3547 20.4787 20.1605C20.4348 19.9631 20.4086 19.7616 20.3901 19.5577C20.3875 19.5284 20.3901 19.5 20.3892 19.4707C20.3664 19.3667 20.3588 19.2595 20.3825 19.1498C20.3892 18.9068 20.3572 18.6598 20.3428 18.4202C20.3276 18.1927 20.3217 17.9652 20.3234 17.7385C20.3251 17.2363 20.3394 16.7342 20.3496 16.2313C20.3707 15.2319 20.3842 14.2333 20.3875 13.234C20.3892 12.4824 20.3875 11.7317 20.4027 10.9817C20.4162 10.2553 20.4702 9.53141 20.4829 8.80666C20.4972 8.03316 20.4964 7.25966 20.4829 6.48616C20.4702 5.75247 20.4179 5.02122 20.3605 4.28916C20.0593 4.28672 19.7581 4.27291 19.4577 4.27779C18.7853 4.28835 18.1136 4.30135 17.4412 4.30135C16.7214 4.30135 16.0017 4.33304 15.282 4.36472C14.5808 4.39641 13.8788 4.40291 13.1743 4.41022C12.4647 4.41835 11.7568 4.43704 11.0464 4.4541C10.3317 4.47279 9.61706 4.46385 8.90241 4.46385C8.20378 4.46385 7.506 4.46872 6.80569 4.47197C6.46481 4.47197 6.12056 4.4736 5.77969 4.44841C5.43375 4.4216 5.09119 4.38097 4.74356 4.37122C4.40775 4.36229 4.06941 4.3761 3.7336 4.37935C3.56653 4.38016 3.39947 4.3761 3.23241 4.37529C3.16744 5.68341 3.06366 6.98991 3.04256 8.30047C3.02147 9.64841 3.0856 10.9963 3.09825 12.3443C3.11175 13.7174 3.11344 15.0922 3.16913 16.4645C3.19697 17.1372 3.2265 17.8092 3.30497 18.4787C3.32438 18.6412 3.34716 18.802 3.3691 18.9645C3.3826 19.0482 3.39188 19.1335 3.40369 19.2188C3.41213 19.2806 3.4231 19.3407 3.429 19.4008C3.49988 19.8932 3.57497 20.3905 3.71166 20.8715C3.78928 21.1445 3.89306 21.411 3.99094 21.6783C4.806 21.5889 5.62275 21.6011 6.44288 21.6011C7.83928 21.6011 9.23569 21.6482 10.6329 21.6734C12.031 21.6986 13.4325 21.7018 14.8323 21.6986C15.1225 21.6986 15.4145 21.6986 15.7056 21.6986C16.0937 21.6986 16.4843 21.7002 16.8742 21.6953C17.5593 21.6888 18.2444 21.6588 18.9295 21.6515C19.1768 21.6498 19.4265 21.6515 19.6737 21.6515C20.0863 21.6547 20.4955 21.658 20.9073 21.6393ZM23.8385 11.5415C23.83 11.1751 23.8056 10.8103 23.8073 10.4447C23.8089 10.1058 23.8123 9.7646 23.8157 9.42497C23.8182 8.81885 23.8317 8.21435 23.8418 7.60904C23.6486 7.60904 23.4554 7.60985 23.2613 7.6131C22.8192 7.62122 22.3763 7.62854 21.9324 7.63179C21.9299 8.12904 21.9265 8.6271 21.9105 9.12435C21.8945 9.62972 21.8675 10.1327 21.8582 10.6364C21.8447 11.3896 21.8531 12.1428 21.8548 12.8952C21.8565 13.6232 21.8565 14.3503 21.87 15.0767C21.8818 15.7885 21.8751 16.497 21.8649 17.2095C21.8616 17.5443 21.8514 17.8807 21.8548 18.2162C21.8582 18.4015 21.8616 18.5843 21.8725 18.7687C21.8793 18.8524 21.886 18.9345 21.8936 19.0182C21.9088 19.1888 21.8987 19.3432 21.8641 19.5154C21.8523 19.5731 21.8168 19.6178 21.789 19.6682C21.816 19.7852 21.8422 19.9013 21.886 20.0151C21.9637 20.1695 22.0539 20.3125 22.1586 20.4514C22.2969 20.6163 22.4421 20.7756 22.6083 20.9145C22.7576 21.012 22.912 21.0941 23.0791 21.164C23.0808 21.1648 23.0825 21.1664 23.0842 21.1672C23.112 21.1152 23.1466 21.0665 23.1719 21.0128C23.3483 20.5611 23.4461 20.0817 23.5229 19.6064C23.56 19.3131 23.5837 19.0198 23.6031 18.724C23.6242 18.399 23.6638 18.0789 23.7001 17.7547C23.7752 17.082 23.8064 16.4117 23.8013 15.734C23.7895 14.3373 23.8697 12.939 23.8385 11.5415Z" fill="#111918" stroke="black" stroke-width="4" mask="url(#path-1-inside-1_1_218)"/>
</svg>
