<svg width="27" height="26" viewBox="0 0 27 26" fill="none" xmlns="http://www.w3.org/2000/svg">
<path d="M19.5 14.5378C19.0838 14.539 18.6687 14.4954 18.2625 14.4078C18.4993 14.9005 18.6803 15.4162 18.8025 15.9461C19.0275 15.9461 19.26 15.9461 19.5 15.9461C20.2648 15.945 21.0245 15.8255 21.75 15.5923L21.0525 14.285C20.5495 14.4374 20.0271 14.5225 19.5 14.5378Z" fill="black"/>
<path d="M15.6225 13.1367L15.3525 12.8623C14.7669 12.311 14.3153 11.6417 14.0301 10.9025C13.7448 10.1633 13.6329 9.37245 13.7025 8.5867C13.7791 7.53423 14.1814 6.52801 14.8575 5.69781L14.7975 6.73059C14.7967 6.91138 14.8664 7.08588 14.9928 7.2196C15.1192 7.35332 15.293 7.43654 15.48 7.45281H15.5475C15.7353 7.45354 15.9165 7.38644 16.0553 7.26475C16.1942 7.14307 16.2806 6.97565 16.2975 6.79559L16.5525 3.8417C16.5615 3.73709 16.5467 3.63185 16.5091 3.53331C16.4716 3.43478 16.4121 3.34531 16.335 3.27114C16.2529 3.2071 16.1577 3.16048 16.0556 3.13435C15.9535 3.10821 15.8468 3.10314 15.7425 3.11947L12.675 3.37225C12.4761 3.38853 12.292 3.48024 12.1633 3.62719C12.0346 3.77415 11.9718 3.96432 11.9888 4.15586C12.0057 4.34741 12.1009 4.52464 12.2535 4.64857C12.4061 4.7725 12.6036 4.83298 12.8025 4.8167L13.77 4.73725C12.859 5.83503 12.322 7.17685 12.2325 8.57947C12.155 9.54072 12.2938 10.5068 12.6394 11.4116C12.985 12.3165 13.5292 13.139 14.235 13.8228L14.4675 14.09C15.4259 15.0438 15.9773 16.3094 16.0125 17.6361C16.0525 18.2371 15.9865 18.8403 15.8175 19.42L17.1675 20.0773C17.4579 19.2632 17.5728 18.4006 17.505 17.5423C17.459 15.9013 16.7891 14.3337 15.6225 13.1367Z" fill="black"/>
<path d="M26.1525 13.1656L25.245 13.2306C26.0731 12.1985 26.5838 10.9634 26.7191 9.66563C26.8544 8.36791 26.6088 7.05966 26.0103 5.88966C25.4118 4.71966 24.4844 3.73486 23.3335 3.04725C22.1826 2.35964 20.8544 1.99681 19.5 2.00002C18.735 1.99875 17.9749 2.1183 17.25 2.35391L17.9325 3.65391C18.7887 3.4204 19.6895 3.38137 20.5641 3.53988C21.4386 3.6984 22.263 4.05013 22.9725 4.56743C23.682 5.08472 24.2572 5.75347 24.6528 6.52107C25.0484 7.28867 25.2537 8.13419 25.2525 8.99113C25.2523 10.2295 24.816 11.4312 24.015 12.4L24.09 11.2878C24.0964 11.193 24.0833 11.0978 24.0516 11.0078C24.0198 10.9179 23.9699 10.8348 23.9048 10.7634C23.8397 10.6919 23.7606 10.6336 23.6721 10.5916C23.5835 10.5496 23.4872 10.5248 23.3887 10.5186C23.2903 10.5125 23.1915 10.525 23.098 10.5556C23.0046 10.5862 22.9183 10.6343 22.8441 10.697C22.77 10.7597 22.7094 10.8358 22.6657 10.9211C22.6221 11.0064 22.5964 11.0991 22.59 11.1939L22.38 14.1406C22.374 14.2451 22.3918 14.3496 22.4319 14.4469C22.472 14.5441 22.5337 14.6318 22.6125 14.7039C22.6799 14.7698 22.7606 14.8217 22.8496 14.8565C22.9386 14.8912 23.034 14.9081 23.13 14.9061H23.205L26.265 14.6028C26.3637 14.5938 26.4595 14.566 26.547 14.5211C26.6345 14.4762 26.7118 14.415 26.7746 14.3411C26.8373 14.2673 26.8843 14.1822 26.9127 14.0907C26.9411 13.9992 26.9504 13.9033 26.94 13.8084C26.9192 13.6245 26.8259 13.4553 26.6794 13.3357C26.5328 13.2161 26.3443 13.1552 26.1525 13.1656Z" fill="black"/>
<path d="M4.905 14.9929H4.965L8.0325 14.7401C8.13099 14.732 8.22687 14.7054 8.31466 14.6616C8.40245 14.6179 8.48043 14.5579 8.54416 14.4851C8.60788 14.4124 8.6561 14.3282 8.68606 14.2375C8.71601 14.1468 8.72712 14.0513 8.71875 13.9565C8.71038 13.8616 8.68269 13.7693 8.63726 13.6848C8.59184 13.6002 8.52957 13.5251 8.454 13.4638C8.37844 13.4024 8.29106 13.356 8.19687 13.3271C8.10267 13.2983 8.00349 13.2876 7.905 13.2956L6.8625 13.3823C7.84445 12.6847 9.03226 12.3077 10.2525 12.3062C10.6636 12.3086 11.0733 12.3521 11.475 12.4362C11.2394 11.9438 11.0609 11.4279 10.9425 10.8979C10.7175 10.8979 10.485 10.8979 10.2525 10.8979C8.65232 10.8956 7.09638 11.4035 5.8275 12.3423L5.9175 11.3962C5.9257 11.3013 5.91433 11.2058 5.88404 11.1151C5.85375 11.0244 5.80515 10.9404 5.74102 10.868C5.67689 10.7955 5.5985 10.7359 5.51037 10.6927C5.42224 10.6495 5.3261 10.6235 5.2275 10.6162C5.02964 10.6002 4.83326 10.6604 4.68142 10.7836C4.52958 10.9068 4.43467 11.0829 4.4175 11.2734L4.155 14.2201C4.1467 14.3197 4.15995 14.4198 4.1939 14.5142C4.22786 14.6086 4.28179 14.6952 4.35228 14.7685C4.42276 14.8418 4.50828 14.9003 4.60342 14.9401C4.69856 14.98 4.80125 15.0004 4.905 15.0001V14.9929Z" fill="black"/>
<path d="M15.6675 20.6189L12.6 20.8139C12.4011 20.8264 12.2155 20.9144 12.0839 21.0587C11.9524 21.2029 11.8858 21.3916 11.8988 21.5831C11.9117 21.7746 12.0031 21.9534 12.1529 22.08C12.3027 22.2067 12.4986 22.2708 12.6975 22.2584L13.8525 22.1789C13.0031 22.8363 11.9781 23.2492 10.8956 23.37C9.81312 23.4908 8.71722 23.3146 7.73422 22.8617C6.75122 22.4087 5.92113 21.6976 5.33962 20.8101C4.75811 19.9226 4.44886 18.895 4.4475 17.8456C4.4529 17.3569 4.52605 16.8712 4.665 16.4012L3.3525 15.7295C3.12015 16.4176 3.00121 17.1365 3 17.86C3.0088 19.168 3.39768 20.4475 4.12261 21.5536C4.84755 22.6597 5.87958 23.5483 7.10188 24.1188C8.32418 24.6893 9.68791 24.9188 11.0387 24.7815C12.3895 24.6442 13.6734 24.1454 14.745 23.3417L14.655 24.1939C14.6446 24.2883 14.6536 24.3837 14.6816 24.4748C14.7095 24.5658 14.7558 24.6506 14.8178 24.7244C14.8798 24.7982 14.9562 24.8595 15.0428 24.9048C15.1294 24.9501 15.2245 24.9785 15.3225 24.9884H15.405C15.5916 24.9893 15.7718 24.9232 15.9105 24.803C16.0492 24.6828 16.1363 24.5171 16.155 24.3384L16.47 21.4062C16.4811 21.3017 16.4685 21.1961 16.4329 21.0968C16.3973 20.9975 16.3397 20.9069 16.264 20.8313C16.1883 20.7556 16.0964 20.6968 15.9947 20.6589C15.8929 20.621 15.7838 20.6049 15.675 20.6117L15.6675 20.6189Z" fill="black"/>
</svg>
