<svg width="27" height="26" viewBox="0 0 27 26" fill="none" xmlns="http://www.w3.org/2000/svg">
<path d="M19.125 6.565C18.3448 6.5655 17.5888 6.82629 16.9858 7.30301C16.3827 7.77972 15.9698 8.44291 15.8173 9.17974C15.6648 9.91657 15.7822 10.6815 16.1493 11.3444C16.5165 12.0074 17.1108 12.5273 17.8313 12.8158C17.66 13.2112 17.3709 13.5488 17.0004 13.7859C16.63 14.0231 16.1948 14.1492 15.75 14.1483H11.25C10.4569 14.1515 9.67949 14.3611 9 14.755V8.53666C9.75062 8.28111 10.3832 7.77826 10.7861 7.11698C11.1889 6.4557 11.336 5.67857 11.2014 4.92295C11.0668 4.16733 10.6591 3.48187 10.0504 2.98772C9.44166 2.49356 8.67115 2.22253 7.875 2.22253C7.07885 2.22253 6.30833 2.49356 5.69963 2.98772C5.09093 3.48187 4.68323 4.16733 4.5486 4.92295C4.41397 5.67857 4.56108 6.4557 4.96391 7.11698C5.36675 7.77826 5.99938 8.28111 6.75 8.53666V17.5933C6.00861 17.8501 5.38387 18.3485 4.98403 19.0022C4.5842 19.656 4.43447 20.4238 4.5608 21.1727C4.68714 21.9216 5.08157 22.6043 5.67573 23.1025C6.2699 23.6008 7.02637 23.8831 7.81403 23.9007C8.60169 23.9183 9.37092 23.6699 9.98839 23.1987C10.6059 22.7274 11.0327 22.063 11.1949 21.3206C11.357 20.5781 11.2444 19.8044 10.8764 19.1336C10.5084 18.4627 9.90826 17.937 9.18 17.6475C9.35053 17.2538 9.63791 16.9174 10.0061 16.6804C10.3744 16.4433 10.8071 16.3162 11.25 16.315H15.75C16.7792 16.3148 17.7772 15.9749 18.5777 15.3519C19.3781 14.729 19.9326 13.8606 20.1487 12.8917C20.9009 12.6456 21.5388 12.1519 21.9502 11.4975C22.3615 10.8431 22.52 10.0699 22.3977 9.31406C22.2754 8.55823 21.8802 7.86815 21.2815 7.3653C20.6829 6.86246 19.9192 6.57906 19.125 6.565ZM7.875 4.39833C8.0975 4.39833 8.31501 4.46187 8.50002 4.5809C8.68502 4.69994 8.82922 4.86914 8.91436 5.06709C8.99951 5.26504 9.02179 5.48287 8.97838 5.69301C8.93497 5.90316 8.82783 6.09619 8.67049 6.2477C8.51316 6.3992 8.3127 6.50238 8.09448 6.54418C7.87625 6.58598 7.65005 6.56453 7.44448 6.48253C7.23891 6.40054 7.06321 6.26168 6.9396 6.08353C6.81598 5.90538 6.75 5.69593 6.75 5.48166C6.75 5.19435 6.86853 4.9188 7.0795 4.71563C7.29048 4.51247 7.57663 4.39833 7.875 4.39833ZM7.875 21.7317C7.6525 21.7317 7.43499 21.6681 7.24998 21.5491C7.06498 21.43 6.92078 21.2609 6.83563 21.0629C6.75049 20.865 6.72821 20.6471 6.77162 20.437C6.81502 20.2268 6.92217 20.0338 7.0795 19.8823C7.23684 19.7308 7.43729 19.6276 7.65552 19.5858C7.87375 19.544 8.09995 19.5655 8.30552 19.6475C8.51109 19.7295 8.68679 19.8683 8.8104 20.0465C8.93402 20.2246 9 20.4341 9 20.6483C9 20.9356 8.88147 21.2112 8.67049 21.4144C8.45952 21.6175 8.17337 21.7317 7.875 21.7317ZM19.125 10.8983C18.9025 10.8983 18.685 10.8348 18.5 10.7158C18.315 10.5967 18.1708 10.4275 18.0856 10.2296C18.0005 10.0316 17.9782 9.8138 18.0216 9.60365C18.065 9.3935 18.1722 9.20047 18.3295 9.04896C18.4868 8.89746 18.6873 8.79428 18.9055 8.75248C19.1238 8.71068 19.35 8.73213 19.5555 8.81413C19.7611 8.89612 19.9368 9.03498 20.0604 9.21313C20.184 9.39128 20.25 9.60073 20.25 9.815C20.25 10.1023 20.1315 10.3779 19.9205 10.581C19.7095 10.7842 19.4234 10.8983 19.125 10.8983Z" fill="#999999"/>
</svg>
