<svg width="27" height="26" viewBox="0 0 27 26" fill="none" xmlns="http://www.w3.org/2000/svg">
<path d="M13.4663 7.55085C13.3082 7.70319 13.2195 7.9097 13.2195 8.12502C13.2195 8.34033 13.3082 8.54684 13.4663 8.69918L16.245 11.375L13.4663 14.0509C13.3834 14.1252 13.3169 14.2149 13.2708 14.3146C13.2246 14.4143 13.1998 14.5219 13.1978 14.631C13.1958 14.74 13.2167 14.8484 13.2591 14.9496C13.3016 15.0508 13.3647 15.1427 13.4448 15.2198C13.525 15.297 13.6204 15.3578 13.7255 15.3987C13.8305 15.4395 13.9431 15.4596 14.0563 15.4577C14.1696 15.4557 14.2814 15.4319 14.3849 15.3874C14.4884 15.343 14.5815 15.279 14.6588 15.1992L18.0338 11.9492C18.1918 11.7968 18.2805 11.5903 18.2805 11.375C18.2805 11.1597 18.1918 10.9532 18.0338 10.8009L14.6588 7.55085C14.5006 7.3987 14.2861 7.31323 14.0625 7.31323C13.8389 7.31323 13.6245 7.3987 13.4663 7.55085ZM10.1588 8.69918C10.3078 8.54516 10.3889 8.34144 10.3851 8.13095C10.3812 7.92046 10.2927 7.71962 10.1381 7.57076C9.98349 7.4219 9.77493 7.33663 9.55634 7.33291C9.33775 7.3292 9.1262 7.40733 8.96625 7.55085L5.59126 10.8009C5.43325 10.9532 5.3445 11.1597 5.3445 11.375C5.3445 11.5903 5.43325 11.7968 5.59126 11.9492L8.96625 15.1992C9.1262 15.3427 9.33775 15.4208 9.55634 15.4171C9.77493 15.4134 9.98349 15.3281 10.1381 15.1793C10.2927 15.0304 10.3812 14.8296 10.3851 14.6191C10.3889 14.4086 10.3078 14.2049 10.1588 14.0509L7.38001 11.375L10.1588 8.69918Z" fill="black"/>
<path fill-rule="evenodd" clip-rule="evenodd" d="M11.8125 0C5.28863 0 0 5.09275 0 11.375C0 17.6573 5.28863 22.75 11.8125 22.75C14.7712 22.75 17.4746 21.7024 19.5469 19.9723L24.435 24.6783C24.5122 24.7582 24.6054 24.8222 24.7089 24.8666C24.8124 24.911 24.9241 24.9349 25.0374 24.9368C25.1507 24.9387 25.2632 24.9187 25.3683 24.8778C25.4734 24.8369 25.5688 24.7761 25.6489 24.699C25.729 24.6218 25.7922 24.5299 25.8346 24.4287C25.8771 24.3276 25.8979 24.2192 25.8959 24.1101C25.8939 24.001 25.8691 23.8934 25.823 23.7938C25.7769 23.6941 25.7104 23.6044 25.6275 23.53L20.7405 18.8229C22.6045 16.7572 23.6291 14.1116 23.625 11.375C23.625 5.09275 18.3364 0 11.8125 0ZM1.6875 11.375C1.6875 10.0946 1.94939 8.82676 2.45822 7.64384C2.96705 6.46091 3.71285 5.38608 4.65304 4.48071C5.59324 3.57534 6.70941 2.85716 7.93783 2.36717C9.16625 1.87719 10.4829 1.625 11.8125 1.625C13.1421 1.625 14.4587 1.87719 15.6872 2.36717C16.9156 2.85716 18.0318 3.57534 18.972 4.48071C19.9121 5.38608 20.658 6.46091 21.1668 7.64384C21.6756 8.82676 21.9375 10.0946 21.9375 11.375C21.9375 13.9609 20.8708 16.4408 18.972 18.2693C17.0731 20.0978 14.4978 21.125 11.8125 21.125C9.12718 21.125 6.55185 20.0978 4.65304 18.2693C2.75424 16.4408 1.6875 13.9609 1.6875 11.375Z" fill="black"/>
</svg>
