<svg width="23" height="22" viewBox="0 0 23 22" fill="none" xmlns="http://www.w3.org/2000/svg">
<g clip-path="url(#clip0_1_417)">
<path d="M11.5 7.21875C9.12813 7.21875 7.1875 9.075 7.1875 11.3438C7.1875 13.6125 9.12813 15.4688 11.5 15.4688C13.8719 15.4688 15.8125 13.6125 15.8125 11.3438C15.8125 9.075 13.8719 7.21875 11.5 7.21875ZM11.5 14.0938C9.91875 14.0938 8.625 12.8562 8.625 11.3438C8.625 9.83125 9.91875 8.59375 11.5 8.59375C13.0813 8.59375 14.375 9.83125 14.375 11.3438C14.375 12.8562 13.0813 14.0938 11.5 14.0938Z" fill="black"/>
<path d="M11.5 17.325C8.82262 17.325 6.25309 18.3906 4.42028 20.264L3.93512 20.7625L4.97731 21.7078L5.46246 21.2093C7.04371 19.5937 9.18199 18.7 11.5 18.7C13.8179 18.7 15.9562 19.5937 17.5375 21.2093L18.0226 21.7078L19.0648 20.7625L18.5797 20.264C16.7468 18.4078 14.1773 17.325 11.5 17.325Z" fill="black"/>
<path d="M17.4297 8.23279V9.60779C19.1188 9.60779 20.682 10.2609 21.85 11.4469L22.8922 10.5015C21.4906 9.05779 19.4961 8.23279 17.4297 8.23279Z" fill="black"/>
<path d="M20.8617 3.43748C20.8617 1.63279 19.3164 0.154663 17.4297 0.154663C15.5429 0.154663 13.9976 1.63279 13.9976 3.43748C13.9976 5.24216 15.5429 6.72029 17.4297 6.72029C19.3164 6.72029 20.8617 5.24216 20.8617 3.43748ZM15.4351 3.43748C15.4351 2.38904 16.3336 1.52966 17.4297 1.52966C18.5257 1.52966 19.4242 2.38904 19.4242 3.43748C19.4242 4.48591 18.5257 5.34529 17.4297 5.34529C16.3336 5.34529 15.4351 4.48591 15.4351 3.43748Z" fill="black"/>
<path d="M5.57029 8.23279C3.50388 8.23279 1.50935 9.05779 0.107788 10.5015L1.14998 11.4469C2.29998 10.2609 3.88123 9.60779 5.57029 9.60779V8.23279Z" fill="black"/>
<path d="M9.00231 3.43748C9.00231 1.63279 7.45699 0.154663 5.57028 0.154663C3.68356 0.154663 2.13824 1.63279 2.13824 3.43748C2.13824 5.24216 3.68356 6.72029 5.57028 6.72029C7.45699 6.72029 9.00231 5.24216 9.00231 3.43748ZM5.57028 5.34529C4.47418 5.34529 3.57574 4.48591 3.57574 3.43748C3.57574 2.38904 4.47418 1.52966 5.57028 1.52966C6.66637 1.52966 7.56481 2.38904 7.56481 3.43748C7.56481 4.48591 6.66637 5.34529 5.57028 5.34529Z" fill="black"/>
</g>
<defs>
<clipPath id="clip0_1_417">
<rect width="23" height="22" fill="white"/>
</clipPath>
</defs>
</svg>
