<svg width="27" height="26" viewBox="0 0 27 26" fill="none" xmlns="http://www.w3.org/2000/svg">
<path d="M19.1953 9.14062H17.5078V14.8281H15.3984V24.1719H12.8672V14.8281H10.7578V9.14062H9.07031V16.4531H11.1797V25.7969H17.0859V16.4531H19.1953V9.14062Z" fill="black"/>
<path d="M11.1797 3.04688C11.1797 4.61094 12.5086 5.89062 14.1328 5.89062C15.757 5.89062 17.0859 4.61094 17.0859 3.04688C17.0859 1.48281 15.757 0.203125 14.1328 0.203125C12.5086 0.203125 11.1797 1.48281 11.1797 3.04688ZM15.3984 3.04688C15.3984 3.71719 14.8289 4.26562 14.1328 4.26562C13.4367 4.26562 12.8672 3.71719 12.8672 3.04688C12.8672 2.37656 13.4367 1.82812 14.1328 1.82812C14.8289 1.82812 15.3984 2.37656 15.3984 3.04688Z" fill="black"/>
<path d="M4.00781 5.07812C4.00781 6.64219 5.33672 7.92188 6.96094 7.92188C8.58516 7.92188 9.91406 6.64219 9.91406 5.07812C9.91406 3.51406 8.58516 2.23438 6.96094 2.23438C5.33672 2.23438 4.00781 3.51406 4.00781 5.07812ZM8.22656 5.07812C8.22656 5.74844 7.65703 6.29688 6.96094 6.29688C6.26484 6.29688 5.69531 5.74844 5.69531 5.07812C5.69531 4.40781 6.26484 3.85938 6.96094 3.85938C7.65703 3.85938 8.22656 4.40781 8.22656 5.07812Z" fill="black"/>
<path d="M23.8359 16.8594H21.7266V24.1719H18.3516V25.7969H23.4141V18.4844H25.5234V10.3594H23.8359V16.8594Z" fill="black"/>
<path d="M18.3516 5.07812C18.3516 6.64219 19.6805 7.92188 21.3047 7.92188C22.9289 7.92188 24.2578 6.64219 24.2578 5.07812C24.2578 3.51406 22.9289 2.23438 21.3047 2.23438C19.6805 2.23438 18.3516 3.51406 18.3516 5.07812ZM21.3047 3.85938C22.0008 3.85938 22.5703 4.40781 22.5703 5.07812C22.5703 5.74844 22.0008 6.29688 21.3047 6.29688C20.6086 6.29688 20.0391 5.74844 20.0391 5.07812C20.0391 4.40781 20.6086 3.85938 21.3047 3.85938Z" fill="black"/>
<path d="M6.53906 16.8594H4.42969V10.3594H2.74219V18.4844H4.85156V25.7969H9.91406V24.1719H6.53906V16.8594Z" fill="black"/>
</svg>
