<svg width="27" height="26" viewBox="0 0 27 26" fill="none" xmlns="http://www.w3.org/2000/svg">
<path d="M4.81254 3.71211H20.241V13.9263H22.1698V1.85504H2.88405V24.1406H13.491V22.2836H4.81254V3.71211Z" fill="black"/>
<path d="M6.74103 5.56918H18.3125V7.42625H6.74103V5.56918ZM6.74103 9.28358H16.3838V11.1406H6.74103V9.28358ZM6.74103 12.9977H12.5268V14.8548H6.74103V12.9977ZM24.0131 22.7873L22.5315 21.3606C22.9956 20.6954 23.2675 19.8951 23.2675 19.0336C23.2675 16.7258 21.3247 14.855 18.9282 14.855C16.5317 14.855 14.589 16.7258 14.589 19.0336C14.589 21.3413 16.5317 23.2121 18.9282 23.2121C19.7298 23.2121 20.4712 22.9882 21.1156 22.6233L22.6494 24.1003L24.0131 22.7873ZM16.5177 19.0336C16.5177 17.7534 17.5993 16.7121 18.9285 16.7121C20.2576 16.7121 21.3392 17.7534 21.3392 19.0336C21.3392 20.3135 20.2576 21.355 18.9285 21.355C17.5993 21.355 16.5177 20.3135 16.5177 19.0336Z" fill="black"/>
</svg>
