<svg width="27" height="26" viewBox="0 0 27 26" fill="none" xmlns="http://www.w3.org/2000/svg">
<path d="M23.1421 18.4821L23.1267 18.4728C23.0312 18.4098 22.9498 18.329 22.8873 18.2351C22.8247 18.1413 22.7823 18.0364 22.7626 17.9265C22.7428 17.8167 22.7461 17.7041 22.7722 17.5955C22.7983 17.4869 22.8467 17.3844 22.9146 17.2941C24.2342 15.0858 24.6711 12.4895 24.1432 9.99287C23.6153 7.49626 22.159 5.27116 20.0478 3.73551C17.9365 2.19987 15.3157 1.45936 12.6775 1.65308C10.0393 1.84679 7.56539 2.96141 5.72036 4.78756C3.87533 6.61371 2.78619 9.02573 2.65751 11.5705C2.52882 14.1154 3.36946 16.6179 5.02152 18.608C6.67358 20.5981 9.02337 21.9389 11.6295 22.3785C14.2357 22.8182 16.9188 22.3264 19.175 20.9955C19.5605 20.7672 20.0617 20.8656 20.3258 21.2182L20.3297 21.2201C20.393 21.3046 20.4379 21.4007 20.4616 21.5024C20.4853 21.604 20.4875 21.7093 20.4678 21.8118C20.4482 21.9143 20.4072 22.0119 20.3474 22.0988C20.2875 22.1856 20.21 22.2599 20.1195 22.3171L19.9576 22.4192C17.3383 23.9357 14.2337 24.4779 11.2282 23.9438C8.22264 23.4098 5.52343 21.8364 3.63856 19.5197C1.75369 17.2029 0.813139 14.3027 0.993923 11.3648C1.17471 8.42687 2.46436 5.65388 4.62016 3.56772C6.77596 1.48156 9.64924 0.226094 12.6992 0.0376033C15.7492 -0.150887 18.7656 0.740599 21.1806 2.54428C23.5957 4.34796 25.2428 6.93945 25.8121 9.83101C26.3814 12.7226 25.8336 15.7148 24.2717 18.2445C24.2164 18.3344 24.1425 18.4123 24.0545 18.4734C23.9666 18.5345 23.8665 18.5776 23.7606 18.5999C23.6546 18.6222 23.545 18.6232 23.4386 18.603C23.3322 18.5827 23.2313 18.5416 23.1421 18.4821ZM8.97388 8.36183C9.16279 8.18177 9.62543 8.1168 9.85096 8.36183C10.1305 8.64583 10.0399 9.1099 9.85096 9.3048L6.93443 12.0335L9.77964 14.6285C9.96855 14.8086 9.99361 15.3228 9.77964 15.527C9.52133 15.7739 8.99316 15.7349 8.81774 15.5659L5.49255 12.375C5.40226 12.2874 5.3516 12.169 5.3516 12.0456C5.3516 11.9221 5.40226 11.8037 5.49255 11.7161L8.97388 8.36368V8.36183ZM18.0261 8.36183L21.5075 11.7142C21.5977 11.8018 21.6484 11.9203 21.6484 12.0437C21.6484 12.1671 21.5977 12.2856 21.5075 12.3732L18.1842 15.5678C18.0088 15.7349 17.5095 15.8407 17.2204 15.5678C16.9486 15.3079 17.0334 14.7733 17.2204 14.5933L20.0771 12.0372L17.1278 9.27882C16.9389 9.08391 16.8772 8.60314 17.1278 8.36368C17.3726 8.13165 17.8372 8.18363 18.0261 8.36368V8.36183ZM14.4523 7.69358C14.5467 7.45226 15.0151 7.30005 15.3139 7.40771C15.5992 7.50981 15.7669 7.89034 15.6898 8.13165L12.5285 16.5034C12.4359 16.7447 11.9849 16.8412 11.7323 16.7502C11.4644 16.6611 11.1733 16.3047 11.2697 16.0653L14.4503 7.69358H14.4523Z" fill="black"/>
</svg>
