<svg width="28" height="28" viewBox="0 0 28 28" fill="none" xmlns="http://www.w3.org/2000/svg">
<path d="M18.3333 16C18.0239 16 17.7272 16.1229 17.5084 16.3417C17.2896 16.5605 17.1667 16.8572 17.1667 17.1667V19.5C17.1667 19.8094 17.2896 20.1062 17.5084 20.325C17.7272 20.5438 18.0239 20.6667 18.3333 20.6667C18.6428 20.6667 18.9395 20.5438 19.1583 20.325C19.3771 20.1062 19.5 19.8094 19.5 19.5V17.1667C19.5 16.8572 19.3771 16.5605 19.1583 16.3417C18.9395 16.1229 18.6428 16 18.3333 16ZM18.7767 12.5933C18.5655 12.4954 18.3298 12.4629 18.1 12.5L17.89 12.57L17.68 12.675L17.505 12.815C17.394 12.9268 17.3069 13.0599 17.2487 13.2062C17.1906 13.3526 17.1627 13.5092 17.1667 13.6667C17.1658 13.8202 17.1952 13.9724 17.2533 14.1146C17.3113 14.2567 17.3969 14.386 17.505 14.495C17.616 14.6012 17.7468 14.6845 17.89 14.74C18.0285 14.8053 18.1803 14.8373 18.3333 14.8333C18.4869 14.8342 18.6391 14.8048 18.7812 14.7467C18.9234 14.6887 19.0527 14.6031 19.1617 14.495C19.2698 14.386 19.3553 14.2567 19.4134 14.1146C19.4715 13.9724 19.5009 13.8202 19.5 13.6667C19.5009 13.5131 19.4715 13.3609 19.4134 13.2188C19.3553 13.0766 19.2698 12.9473 19.1617 12.8383C19.0483 12.7353 18.918 12.6524 18.7767 12.5933ZM27.6667 10.0967C27.6545 9.98949 27.6311 9.8839 27.5967 9.78167V9.67667C27.5406 9.55671 27.4657 9.44644 27.375 9.35L20.375 2.35C20.2786 2.25925 20.1683 2.18443 20.0483 2.12833H19.9317C19.8182 2.06767 19.6963 2.02441 19.57 2H12.5C11.5717 2 10.6815 2.36875 10.0251 3.02513C9.36875 3.6815 9 4.57174 9 5.5V21.8333C9 22.7616 9.36875 23.6518 10.0251 24.3082C10.6815 24.9646 11.5717 25.3333 12.5 25.3333H24.1667C25.0949 25.3333 25.9852 24.9646 26.6415 24.3082C27.2979 23.6518 27.6667 22.7616 27.6667 21.8333V10.1667C27.6667 10.1667 27.6667 10.1667 27.6667 10.0967ZM20.6667 5.97833L23.6883 9H21.8333C21.5239 9 21.2272 8.87708 21.0084 8.65829C20.7896 8.4395 20.6667 8.14275 20.6667 7.83333V5.97833ZM25.3333 21.8333C25.3333 22.1428 25.2104 22.4395 24.9916 22.6583C24.7728 22.8771 24.4761 23 24.1667 23H12.5C12.1906 23 11.8938 22.8771 11.675 22.6583C11.4562 22.4395 11.3333 22.1428 11.3333 21.8333V5.5C11.3333 5.19058 11.4562 4.89383 11.675 4.67504C11.8938 4.45625 12.1906 4.33333 12.5 4.33333H18.3333V7.83333C18.3333 8.76159 18.7021 9.65183 19.3585 10.3082C20.0148 10.9646 20.9051 11.3333 21.8333 11.3333H25.3333V21.8333Z" fill="#00163D"/>
</svg>
