<svg width="34" height="30" viewBox="0 0 34 30" fill="none" xmlns="http://www.w3.org/2000/svg">
<g clip-path="url(#clip0_1_190)">
<path d="M23.4175 13.825L21.9158 12.5L15.0025 18.6L11.9992 15.95L10.4975 17.275L15.0025 21.25L23.4175 13.825ZM26.9167 3.75H25.5V1.25H22.6667V3.75H11.3333V1.25H8.5V3.75H7.08333C5.51083 3.75 4.26417 4.875 4.26417 6.25L4.25 23.75C4.25 25.125 5.51083 26.25 7.08333 26.25H26.9167C28.475 26.25 29.75 25.125 29.75 23.75V6.25C29.75 4.875 28.475 3.75 26.9167 3.75ZM26.9167 23.75H7.08333V10H26.9167V23.75Z" fill="black"/>
</g>
<defs>
<clipPath id="clip0_1_190">
<rect width="34" height="30" fill="white"/>
</clipPath>
</defs>
</svg>
