<svg width="24" height="24" viewBox="0 0 24 24" fill="none" xmlns="http://www.w3.org/2000/svg">
<path d="M21.94 12.865L20.874 9.58499L18.76 3.07499C18.7043 2.90762 18.597 2.76225 18.4534 2.65982C18.3098 2.55738 18.1374 2.50317 17.961 2.50499C17.7853 2.5042 17.6141 2.55971 17.4723 2.66337C17.3304 2.76702 17.2256 2.91338 17.173 3.08099L15.166 9.25899H8.834L6.824 3.07999C6.77126 2.91257 6.66631 2.76643 6.52452 2.66296C6.38272 2.5595 6.21153 2.50414 6.036 2.50499H6.03C5.85374 2.50507 5.68198 2.56066 5.53909 2.66387C5.39621 2.76709 5.28946 2.91268 5.234 3.07999L3.127 9.58399L3.125 9.58999L3.126 9.58499L2.057 12.865C1.97819 13.1056 1.97785 13.3651 2.05603 13.6059C2.13422 13.8467 2.28688 14.0565 2.492 14.205L11.721 20.91L11.725 20.913L11.728 20.914L11.729 20.915C11.7435 20.9252 11.7585 20.9345 11.774 20.943L11.78 20.947L11.784 20.949L11.787 20.95H11.789L11.794 20.953L11.819 20.963L11.842 20.973H11.843L11.847 20.975L11.852 20.977H11.854L11.86 20.979H11.863C11.874 20.983 11.885 20.985 11.897 20.988L11.91 20.991H11.912L11.917 20.993L11.924 20.994H11.931C11.9528 20.9975 11.9749 20.9996 11.997 21H11.998C12.0204 20.9999 12.0428 20.9983 12.065 20.995H12.072L12.079 20.993L12.083 20.992H12.085L12.099 20.988L12.133 20.98H12.135L12.141 20.977H12.143L12.148 20.975L12.152 20.974L12.178 20.963L12.201 20.953L12.206 20.951H12.208L12.211 20.949L12.215 20.947L12.222 20.943C12.2372 20.9348 12.2518 20.9258 12.266 20.916L12.27 20.913L12.275 20.91L21.505 14.204C21.7097 14.0555 21.8621 13.8458 21.9401 13.6052C22.0181 13.3645 22.0177 13.1054 21.939 12.865H21.94ZM17.967 3.68499L19.777 9.25899H16.157L17.967 3.68499ZM6.03 3.68499L7.843 9.25999H4.223L6.03 3.68499ZM3.046 13.442C3.00257 13.4103 2.97028 13.3656 2.95376 13.3144C2.93723 13.2632 2.93732 13.2081 2.954 13.157L3.748 10.719L9.57 18.183L3.046 13.442ZM4.54 10.202H8.15L10.723 18.129L4.54 10.202ZM11.705 20.898L11.699 20.893L11.688 20.883L11.668 20.865L11.67 20.866L11.672 20.868C11.6856 20.8812 11.6999 20.8935 11.715 20.905L11.717 20.907L11.705 20.898ZM11.998 19.004L10.484 14.339L9.14 10.201H14.86L11.998 19.004ZM12.308 20.884L12.298 20.892L12.296 20.893L12.291 20.898L12.279 20.907L12.281 20.905C12.2961 20.8939 12.3104 20.8819 12.324 20.869L12.325 20.867L12.327 20.865L12.308 20.884ZM15.851 10.2H19.461L18.721 11.147L13.274 18.127L15.851 10.2ZM20.951 13.441L14.428 18.181L20.252 10.718L21.043 13.155C21.0599 13.2063 21.0601 13.2616 21.0436 13.313C21.0271 13.3644 20.9946 13.4092 20.951 13.441Z" fill="#E5905E"/>
</svg>
