<svg width="32" height="28" viewBox="0 0 32 28" fill="none" xmlns="http://www.w3.org/2000/svg">
<g clip-path="url(#clip0_1_85)">
<path fill-rule="evenodd" clip-rule="evenodd" d="M27.295 13.4925C27.295 19.04 22.27 23.5375 16.072 23.5375C9.874 23.5375 4.85 19.04 4.85 13.4925C4.85 7.94501 9.874 3.44751 16.072 3.44751C22.27 3.44751 27.295 7.94501 27.295 13.4925Z" fill="#D33833"/>
<path d="M5.306 15.9801C5.306 15.9801 4.494 5.50549 15.524 5.20624L14.754 4.08362L8.768 5.83362L7.068 7.55474L5.572 10.0616L4.717 12.9797L4.974 14.9249" fill="#EF3D3A"/>
<path d="M8.385 6.64126C6.415 8.40438 5.197 10.8386 5.197 13.531C5.197 16.2234 6.417 18.6585 8.385 20.4199C10.353 22.1813 13.07 23.2698 16.072 23.2698C19.074 23.2698 21.789 22.1821 23.759 20.4199C25.729 18.6576 26.947 16.2225 26.947 13.531C26.947 10.8395 25.727 8.40351 23.759 6.64126C21.791 4.87901 19.074 3.79138 16.072 3.79138C13.07 3.79138 10.355 4.87901 8.385 6.64126ZM7.887 20.8469C5.794 18.9744 4.501 16.3861 4.501 13.5319C4.501 10.6776 5.795 8.08938 7.887 6.21688C9.979 4.34438 12.875 3.18238 16.072 3.18326C19.269 3.18413 22.165 4.34438 24.257 6.21688C26.349 8.08938 27.644 10.6776 27.644 13.5319C27.644 16.3861 26.35 18.9744 24.257 20.8469C22.164 22.7194 19.269 23.8805 16.072 23.8805C12.875 23.8805 9.979 22.7194 7.887 20.8469Z" fill="#231F20"/>
<path fill-rule="evenodd" clip-rule="evenodd" d="M20.796 13.5485L19.096 13.7734L16.786 13.9983L15.29 14.0359L13.836 13.9983L12.724 13.699L11.741 12.7628L10.971 10.8553L10.801 10.444L9.77501 10.1448L9.17501 9.28464L8.74001 8.05001L9.21001 6.96501L10.322 6.62814L11.22 7.00264L11.648 7.82514L12.161 7.74989L12.331 7.56264L12.161 6.70251L12.118 5.61751L12.375 4.13001L12.365 3.27514L13.145 2.18489L14.513 1.32476L16.905 0.417389L19.555 0.754264L21.865 2.21289L22.935 3.70039L23.619 4.78539L23.789 7.47864L23.276 9.79739L22.336 11.8536L21.438 12.9386" fill="#F0D6B7"/>
<path fill-rule="evenodd" clip-rule="evenodd" d="M19.342 20.02L13.228 20.2449V21.1426L13.741 24.2839L13.484 24.5464L9.21 23.275L8.91 22.8261L8.482 18.5999L7.499 16.0563L7.285 15.4578L10.705 13.4015L11.775 13.027L12.715 14.0368L13.527 14.6729L14.467 14.9354L14.894 15.0474L15.407 16.9925L15.792 17.4038L16.775 17.1045L16.091 18.2639L19.811 19.7978L19.341 20.0226" fill="#335061"/>
<path fill-rule="evenodd" clip-rule="evenodd" d="M9.21 6.965L10.322 6.62813L11.22 7.00263L11.648 7.82513L12.161 7.74988L12.289 7.301L12.032 6.44088L12.289 4.38288L12.075 3.26025L12.845 2.4745L14.512 1.31513L14.042 0.755127L11.69 1.76488L10.707 2.43863L10.151 3.486L9.296 4.49575L9.039 5.69275L9.209 6.965" fill="#6D6B6D"/>
<path fill-rule="evenodd" clip-rule="evenodd" d="M10.962 3.44751C10.962 3.44751 11.602 2.06326 14.169 1.39126C16.736 0.719257 14.297 0.904757 14.297 0.904757L11.517 1.84101L10.447 2.77726L9.977 3.52538L10.96 3.45013M9.68 6.70251C9.68 6.70251 8.782 4.08363 12.203 3.71001L12.075 3.26113L9.725 3.74763L9.041 5.69276L9.211 6.96501L9.68 6.70251Z" fill="#DCD9D8"/>
<path fill-rule="evenodd" clip-rule="evenodd" d="M11.048 10.1815L11.608 9.70726C11.6136 9.77711 11.6457 9.84333 11.6991 9.89546C11.7525 9.9476 11.8243 9.98267 11.903 9.99514C11.946 10.2576 12.073 12.614 13.903 13.8863C14.071 14.0026 12.535 13.699 12.535 13.699L11.167 11.8283M18.905 9.47014C18.905 9.47014 19.005 8.33614 19.355 8.42364C19.705 8.51114 19.705 8.81739 19.705 8.81739C19.705 8.81739 18.857 9.29689 18.907 9.47189" fill="#F7E4CD"/>
<path d="M22.464 5.31738C22.464 5.31738 21.759 5.44863 21.694 5.99113C21.629 6.53363 22.464 6.10313 22.592 6.06638M17.3 5.35501C17.3 5.35501 16.36 5.46701 16.36 5.99113C16.36 6.51526 17.43 6.47763 17.728 6.25363" fill="#F7E4CD"/>
<path fill-rule="evenodd" clip-rule="evenodd" d="M11.475 7.78748C11.475 7.78748 9.85001 6.92649 9.68001 7.74986C9.51001 8.57324 9.12401 9.17173 9.93701 10.0319L9.38101 9.88311L8.86801 8.72373L8.69801 7.60111L9.68101 6.70336L10.793 6.77861L11.433 7.22749L11.475 7.78748ZM12.246 5.43024C12.246 5.43024 12.973 2.13849 16.65 1.49274C19.677 0.969485 21.267 1.60474 21.866 2.20324C21.866 2.20324 19.172 -0.602015 16.606 0.25811C14.04 1.11824 12.16 2.70811 12.2 3.70824L12.243 5.42936M22.163 2.58561C22.163 2.58561 20.923 2.54799 20.88 3.52186C20.8844 3.62567 20.9134 3.72756 20.965 3.82111C20.965 3.82111 21.949 2.84811 22.547 3.37224M16.734 3.92174C16.734 3.92174 16.521 2.42899 15.066 3.29699C14.126 3.85699 14.211 4.64449 14.382 4.78449C14.553 4.92449 14.507 5.23511 14.637 5.02949C14.767 4.82386 14.724 4.14924 15.195 3.96199C15.666 3.77474 16.435 3.56561 16.735 3.91386" fill="#F7E4CD"/>
<path fill-rule="evenodd" clip-rule="evenodd" d="M12.715 14.035L8.695 15.6065C8.695 15.6065 10.362 21.4051 9.507 23.2015L8.907 23.0142L8.864 20.8066L7.756 16.625L7.286 15.4656L11.486 12.9964L12.726 14.0437M13.13 17.2419L13.7 17.8509V20.0952H13.016L12.931 18.3452C12.931 18.158 13.016 17.4851 13.016 17.4851M13.143 20.4312L11.219 20.5056L11.775 20.8425L13.143 21.0297" fill="#49728B"/>
<path fill-rule="evenodd" clip-rule="evenodd" d="M19.727 20.0576L21.309 20.02L21.694 23.4622L20.069 23.6495L19.727 20.0576Z" fill="#335061"/>
<path fill-rule="evenodd" clip-rule="evenodd" d="M20.155 20.0576L22.549 19.9456L23.532 17.6636C23.532 17.5516 24.387 14.5224 24.387 14.5224L22.463 12.7636L22.078 12.4644L21.052 13.3621V16.8411L20.154 20.0585" fill="#335061"/>
<path fill-rule="evenodd" clip-rule="evenodd" d="M21.224 19.796L19.728 20.0585L19.942 21.1059C20.498 21.3307 21.438 20.7314 21.438 20.7314M21.266 13.2501L24.259 15.1952L24.345 14.2975L22.079 12.4644L21.266 13.2501Z" fill="#49728B"/>
<path fill-rule="evenodd" clip-rule="evenodd" d="M14.627 27.4277L13.742 24.2847L13.302 21.966L13.229 20.2448L17.235 20.0585H19.728L19.501 23.996L19.886 27.0261L19.843 27.5861L16.593 27.811L14.626 27.4365" fill="white"/>
<path fill-rule="evenodd" clip-rule="evenodd" d="M19.17 20.02C19.17 20.02 18.956 23.9111 19.598 26.67C19.598 26.67 18.315 27.3805 16.434 27.5677L20.024 27.4557L20.452 27.2309L19.939 21.0954L19.811 19.7855" fill="#DCD9D8"/>
<path fill-rule="evenodd" clip-rule="evenodd" d="M21.767 23.163L23.434 22.7517L26.598 22.603L27.068 21.3307L26.213 19.1231L25.23 19.0111L23.862 19.3856L22.549 19.9456L21.852 19.8336L21.309 20.02" fill="white"/>
<path fill-rule="evenodd" clip-rule="evenodd" d="M21.737 22.414C21.737 22.414 22.849 21.9651 23.02 22.0027L22.55 19.9447L23.106 19.7575L23.491 21.9275L26.099 22.0395C26.099 22.0395 26.612 21.1794 26.484 20.2895L26.954 21.4865L26.997 22.1602L26.313 23.058L25.543 23.2067L24.26 23.1691L23.832 22.6826L22.336 22.8699L21.866 23.0186" fill="#DCD9D8"/>
<path d="M20.056 19.7575L19.116 17.6627L18.133 16.429C18.133 16.429 18.347 15.904 18.646 15.904H19.629L20.569 16.2032L20.484 17.5875L20.056 19.7575Z" fill="white"/>
<path fill-rule="evenodd" clip-rule="evenodd" d="M20.24 19.0487C20.24 19.0487 19.043 17.0275 19.043 16.73C19.043 16.73 19.257 16.2811 19.556 16.3931C19.855 16.5051 20.496 16.8044 20.496 16.8044V16.0939L19.042 15.8314L18.059 15.9434L19.726 19.3856L20.068 19.4232" fill="#DCD9D8"/>
<path d="M15.01 14.1094L13.826 13.9956L12.714 13.6964V14.0333L13.257 14.5583L14.957 15.232" fill="white"/>
<path fill-rule="evenodd" clip-rule="evenodd" d="M13.1 14.2223C13.1 14.2223 14.425 14.7088 14.853 14.5968L14.896 15.0456L13.699 14.8216L12.972 14.3728L13.1 14.224" fill="#DCD9D8"/>
<path fill-rule="evenodd" clip-rule="evenodd" d="M21.762 16.0326C21.037 16.0151 20.382 15.939 19.807 15.7964C19.847 15.5908 19.773 15.3886 19.832 15.2399C19.992 15.1393 20.26 15.141 20.502 15.1174C20.292 15.0273 19.999 14.9923 19.758 15.0439C19.752 14.9013 19.678 14.8129 19.635 14.7009C20.043 14.5731 21.005 13.7384 21.547 14.0149C21.805 14.1461 21.915 14.8986 21.935 15.2626C21.952 15.5654 21.905 15.8716 21.762 16.0326Z" fill="#D33833"/>
<path d="M21.762 16.0326C21.037 16.0151 20.382 15.939 19.807 15.7964C19.847 15.5908 19.773 15.3886 19.832 15.2399C19.992 15.1393 20.26 15.141 20.502 15.1174C20.292 15.0273 19.999 14.9923 19.758 15.0439C19.752 14.9013 19.678 14.8129 19.635 14.7009C20.043 14.5731 21.005 13.7384 21.547 14.0149C21.805 14.1461 21.915 14.8986 21.935 15.2626C21.952 15.5654 21.905 15.8716 21.762 16.0326Z" stroke="#D33833" stroke-width="0.514"/>
<path fill-rule="evenodd" clip-rule="evenodd" d="M18.293 14.9949L18.287 15.1401C18.06 15.2714 17.695 15.2688 17.447 15.3781C17.813 15.3921 18.102 15.4691 18.352 15.5794L18.336 15.9425C17.921 16.191 17.542 16.562 17.053 16.7948C16.823 16.905 16.011 17.1885 15.765 17.1386C15.625 17.1106 15.613 16.9593 15.558 16.8166C15.44 16.5104 15.168 16.0265 15.143 15.5671C15.113 14.987 15.046 14.0158 15.76 14.1348C16.3504 14.2444 16.9201 14.4267 17.452 14.6764C17.725 14.8076 17.882 14.9678 18.296 14.9958" fill="#D33833"/>
<path d="M18.293 14.9949L18.287 15.1401C18.06 15.2714 17.695 15.2688 17.447 15.3781C17.813 15.3921 18.102 15.4691 18.352 15.5794L18.336 15.9425C17.921 16.191 17.542 16.562 17.053 16.7948C16.823 16.905 16.011 17.1885 15.765 17.1386C15.625 17.1106 15.613 16.9593 15.558 16.8166C15.44 16.5104 15.168 16.0265 15.143 15.5671C15.113 14.987 15.046 14.0158 15.76 14.1348C16.3504 14.2444 16.9201 14.4267 17.452 14.6764C17.725 14.8076 17.882 14.9678 18.296 14.9958L18.293 14.9949Z" stroke="#D33833" stroke-width="0.514"/>
<path fill-rule="evenodd" clip-rule="evenodd" d="M18.705 15.687C18.642 15.372 18.568 15.281 18.597 15.0045C19.56 14.4427 19.74 15.9687 18.705 15.687Z" fill="#D33833"/>
<path d="M18.705 15.687C18.642 15.372 18.568 15.281 18.597 15.0045C19.56 14.4427 19.74 15.9687 18.705 15.687Z" stroke="#D33833" stroke-width="0.514"/>
<path fill-rule="evenodd" clip-rule="evenodd" d="M20.1 15.9425C20.1 15.9425 19.8 15.568 20.014 15.456C20.228 15.344 20.442 15.456 20.57 15.2688C20.698 15.0815 20.57 14.9695 20.613 14.7438C20.656 14.518 20.87 14.4813 21.083 14.4445C21.296 14.4078 21.895 14.3325 21.981 14.5198L21.724 13.846L21.211 13.6973L19.586 14.5198L19.5 14.931V15.7535M15.6 17.1763L15.434 15.4263C15.334 14.5556 15.674 14.707 16.536 14.707C16.668 14.707 17.336 14.8444 17.396 14.9319C17.629 15.3484 16.996 15.2556 17.666 15.5706C18.222 15.8358 19.204 15.4096 18.979 14.8199C18.853 14.6886 18.324 14.7788 18.134 14.693L17.132 14.238C16.707 14.0455 15.725 13.7638 15.272 14.0333C14.124 14.7158 15.344 16.4238 15.754 17.136" fill="#EF3D3A"/>
<path fill-rule="evenodd" clip-rule="evenodd" d="M16.735 3.92261C15.57 3.68636 14.991 4.34961 14.637 5.03824C14.322 4.97174 14.437 4.59636 14.537 4.40474C14.737 3.90249 15.587 3.23486 16.273 3.32499C16.569 3.36436 16.969 3.60061 16.745 3.92261M22.413 5.07499L22.468 5.07674C22.731 5.55536 22.968 6.06286 23.291 6.47674C23.068 6.92999 21.606 7.33161 21.628 6.51699C21.944 6.39624 22.49 6.49249 22.771 6.33761C22.609 5.94824 22.375 5.61661 22.411 5.06624M17.331 5.09599C17.581 5.49674 17.661 5.91849 18.017 6.22036C18.177 6.35686 18.487 6.52311 18.334 6.90286C18.2248 7.04909 18.0681 7.16337 17.884 7.23099C17.329 7.37449 16.034 7.26074 16.484 6.65524C16.944 6.67274 17.56 6.91599 17.904 6.62461C17.64 6.25711 17.171 5.52649 17.344 5.09686M22.214 9.16999C21.378 9.63986 20.446 10.15 19.076 10.0327C18.783 9.81049 18.672 9.31524 18.956 8.98711C19.104 9.20936 19.011 9.61974 19.424 9.68099C20.201 9.79736 21.106 9.26536 21.664 9.07899C22.011 8.56711 21.634 8.37899 21.322 8.04999C20.682 7.37624 19.825 6.53974 19.856 5.52999C20.114 5.36636 20.136 5.78024 20.174 5.85549C20.508 6.53799 21.348 7.41299 21.961 7.99924C22.111 8.14361 22.361 8.28186 22.387 8.37724C22.467 8.65461 22.18 8.98624 22.213 9.17086M11.183 8.67474C10.921 8.54349 10.859 7.96774 10.551 7.95111C10.111 7.92749 10.191 8.69924 10.193 9.14986C9.89 8.90924 9.837 8.16986 10.059 7.78924C9.806 7.68074 9.692 7.90911 9.552 7.99049C9.732 6.84249 11.472 7.46549 11.182 8.67561M22.737 9.63811C22.337 10.2856 21.797 10.9996 20.655 11.0206C20.632 10.8106 20.615 10.493 20.656 10.367C21.529 10.2935 22.069 9.90499 22.737 9.63811ZM17.266 10.0581C17.994 10.3932 19.333 10.4291 20.323 10.4037C20.376 10.5936 20.375 10.8281 20.377 11.06C19.104 11.1151 17.6 10.8412 17.277 10.0581M17.137 10.6829C17.641 11.7897 19.372 11.6629 20.832 11.6314C20.768 11.7749 20.628 11.9446 20.455 12.0059C19.987 12.1809 18.697 12.299 18.048 11.9971C17.636 11.8046 17.372 11.3724 17.146 11.1186C17.046 10.9961 16.494 10.6829 17.138 10.6811" fill="#231F20"/>
<path fill-rule="evenodd" clip-rule="evenodd" d="M22.144 16.7965L20.286 19.3734C20.58 18.6174 20.706 17.3521 20.75 16.3861C21.365 16.1341 21.892 16.443 22.144 16.7974" fill="#81B0C4"/>
<path fill-rule="evenodd" clip-rule="evenodd" d="M25.324 19.9797C24.662 20.0952 24.197 20.6587 23.552 20.622C23.907 20.1845 24.528 20.0095 25.324 19.9797ZM25.616 20.8862C25.076 20.9361 24.443 21.0122 23.896 20.9737C24.156 20.6272 25.153 20.7462 25.616 20.8862ZM25.803 21.6667C25.197 21.6781 24.443 21.6676 23.867 21.6256C24.207 21.3054 25.41 21.5066 25.803 21.6667Z" fill="#231F20"/>
<path fill-rule="evenodd" clip-rule="evenodd" d="M21.003 23.8052C21.09 24.4702 21.393 25.1466 21.353 25.8755C21.018 25.9744 20.825 26.061 20.376 26.0592L20.278 23.9006C20.498 23.9137 20.825 23.7624 21.002 23.8131" fill="#DCD9D8"/>
<path fill-rule="evenodd" clip-rule="evenodd" d="M20.026 13.9878C19.722 14.1628 19.462 14.3789 19.17 14.5653C18.522 14.5933 18.168 14.5259 17.692 14.2004C17.7 14.1741 17.748 14.1855 17.749 14.154C18.443 14.4253 19.325 14.0438 20.026 13.9878Z" fill="#F0D6B7"/>
<path fill-rule="evenodd" clip-rule="evenodd" d="M16.383 18.1265C16.573 17.4037 17.321 17.0292 17.999 16.6302C18.699 17.409 19.125 18.4065 19.594 19.3725C18.486 19.0802 17.354 18.606 16.384 18.1256" fill="#81B0C4"/>
<path fill-rule="evenodd" clip-rule="evenodd" d="M20.28 23.9015C20.252 24.4921 20.346 25.4415 20.378 26.0601C20.828 26.061 21.02 25.9744 21.355 25.8764C21.393 25.1466 21.091 24.472 21.005 23.8061C20.828 23.765 20.502 23.9155 20.281 23.8936L20.28 23.9015ZM13.288 20.5415C13.584 22.9232 14.013 24.9165 14.8 27.034C16.546 27.4977 18.65 27.538 20.194 27.1197C19.911 25.9297 20.034 24.4799 19.869 23.2085L19.637 20.3184C17.767 19.9771 15.124 20.2396 13.289 20.5389L13.288 20.5415ZM20.088 20.3359C20.072 21.3596 20.14 22.3676 20.23 23.3922L21.4 23.2137C21.265 22.2276 21.28 21.1181 21.005 20.2457C20.685 20.2484 20.406 20.2422 20.088 20.3359ZM22.365 20.1714C22.152 20.1276 21.905 20.1696 21.7 20.1731L22.1 22.8025C22.42 22.8112 22.59 22.68 22.855 22.6345C22.869 21.8662 22.778 20.8075 22.355 20.1714H22.365ZM25.813 22.9276C26.481 22.7859 26.9 22.0701 26.713 21.3351C26.588 20.8416 26.365 19.9115 26.126 19.5956C25.95 19.362 25.471 19.0557 25.089 19.2701C24.467 19.6184 23.372 19.7199 22.919 20.1407C23.146 20.8031 23.217 21.7122 23.311 22.5514C24.088 22.5934 25.043 22.3641 25.689 22.6074C25.239 22.7351 24.653 22.736 24.264 22.9224C24.582 23.0571 25.328 23.03 25.814 22.9267L25.813 22.9276ZM19.605 19.3751C19.135 18.41 18.71 17.4099 18.01 16.6329C17.332 17.031 16.585 17.4055 16.394 18.1291C17.364 18.6104 18.497 19.0829 19.604 19.376L19.605 19.3751ZM20.761 16.387C20.717 17.3521 20.591 18.6182 20.297 19.3742C20.997 18.5929 21.564 17.6829 22.155 16.7974C21.903 16.4439 21.375 16.135 20.761 16.3861V16.387ZM19.461 15.9792C19.195 15.953 18.971 16.2461 18.624 16.1192L18.392 16.3537C19.155 17.1587 19.492 18.2997 20.092 19.2447C20.408 18.3365 20.372 17.3416 20.442 16.3502C20.008 16.3747 19.767 16.0064 19.462 15.9784L19.461 15.9792ZM18.618 15.0062C18.59 15.2819 18.663 15.372 18.726 15.6887C19.761 15.9722 19.58 14.4462 18.618 15.0062ZM17.47 14.6764C16.9381 14.4267 16.3684 14.2443 15.778 14.1347C15.064 14.0149 15.131 14.987 15.161 15.5671C15.185 16.0265 15.458 16.5121 15.576 16.8166C15.632 16.9592 15.644 17.1097 15.783 17.1386C16.029 17.1885 16.84 16.905 17.071 16.7947C17.561 16.5611 17.939 16.1822 18.354 15.9425L18.37 15.5794C18.12 15.4709 17.832 15.393 17.465 15.3781C17.715 15.2687 18.079 15.2705 18.305 15.1401L18.311 14.9949C17.897 14.9669 17.741 14.8059 17.467 14.6755L17.47 14.6764ZM13.21 13.9991C12.84 14.3281 14.248 14.7761 14.697 14.8006C14.694 14.5924 14.833 14.3964 14.805 14.2467C14.272 14.1645 13.572 14.2187 13.211 13.9991H13.21ZM17.77 14.1531C17.768 14.1855 17.72 14.1732 17.713 14.1995C18.189 14.525 18.543 14.5932 19.191 14.5644L20.047 13.9869C19.347 14.042 18.464 14.4226 17.77 14.1531ZM21.956 15.2644C21.936 14.8986 21.826 14.1479 21.568 14.0166C21.026 13.7401 20.063 14.5749 19.656 14.7026C19.7 14.8146 19.774 14.9039 19.779 15.0456C20.019 14.9931 20.314 15.0281 20.523 15.1191C20.281 15.1427 20.023 15.141 19.853 15.2416C19.793 15.3904 19.867 15.5916 19.828 15.7981C20.402 15.9399 21.058 16.0151 21.783 16.0344C21.923 15.8742 21.973 15.568 21.956 15.2644ZM12.586 14.3176C12.47 14.245 11.683 13.3499 11.586 13.3866C10.163 13.8766 8.833 14.7254 7.644 15.5304C8.778 17.6584 9.234 20.2667 9.316 22.7797C10.616 23.3109 11.756 24.0774 13.516 24.157L13.01 20.58C12.567 20.4164 11.932 20.587 11.518 20.5292C11.514 20.0917 12.151 20.3367 12.204 20.0445C12.244 19.8222 11.854 19.8056 11.981 19.4556C12.305 19.5589 12.475 19.7864 12.821 19.8712C13.137 19.2675 12.817 18.1982 12.861 17.6837C12.871 17.5892 12.915 17.1587 13.158 17.234C13.373 17.3005 13.146 18.3802 13.168 18.8571C13.188 19.2972 13.108 19.7321 13.311 19.9999C15.014 19.7969 16.744 19.6656 18.586 19.6219C18.181 19.4696 17.699 19.3244 17.171 19.0654C16.885 18.9254 15.983 18.6305 15.901 18.3916C15.769 18.0127 16.247 17.8106 16.328 17.486C15.468 17.8972 15.301 17.0922 15.098 16.5235C14.914 16.0072 14.808 15.6222 14.764 15.3247C14.024 15.0159 13.232 14.7122 12.594 14.3071L12.586 14.3176ZM21.203 13.4951C22.389 12.992 22.603 15.3764 22.138 16.1429C22.21 16.3721 22.458 16.4596 22.558 16.6652L20.488 19.6954C20.99 19.4215 21.708 19.6464 22.288 19.4329C22.504 19.3585 22.66 18.9254 22.824 18.5797C23.274 17.6277 23.746 16.4272 23.956 15.5172C24.003 15.3099 24.133 14.8592 24.104 14.6746C24.052 14.3447 23.541 14.0997 23.28 13.8871L22 12.8266C21.797 13.0891 21.362 13.2641 21.196 13.4776L21.203 13.4951ZM9.855 4.2945C9.29 4.83875 9.408 5.85725 9.477 6.58262C10.497 6.02087 11.853 6.62637 11.841 7.58275C12.329 7.57137 12.023 7.049 11.935 6.71387C11.647 5.61662 12.421 4.42487 11.97 3.42125C11.095 3.479 10.377 3.79225 9.856 4.2945H9.855ZM13.897 1.1375C12.617 1.45425 10.979 2.268 10.454 3.2725C10.861 3.22 11.144 3.0415 11.544 3.01C11.696 3.00125 11.894 3.066 12.069 3.0275C12.416 2.95225 12.709 2.27062 12.972 2.01687C13.228 1.76925 13.535 1.66337 13.745 1.43762C13.88 1.38075 14.08 1.38512 14.087 1.2075C14.027 1.15237 13.967 1.12 13.887 1.12L13.897 1.1375ZM20.554 1.435C19.227 0.781372 16.98 0.288747 15.568 0.903872C14.428 1.40087 12.888 2.22337 12.363 3.26637C12.853 4.27262 12.218 5.194 12.177 6.21512C12.155 6.75762 12.469 7.23275 12.493 7.82512C12.325 8.0675 11.813 8.09637 11.457 8.08062C11.337 7.55737 11.127 6.96937 10.513 6.90987C9.643 6.82675 9.005 7.45762 8.965 8.11737C8.918 8.89262 9.645 10.178 10.677 10.0887C11.075 10.0537 11.173 9.70375 11.607 9.70812C11.842 10.1194 11.244 10.248 11.183 10.5411C11.167 10.6172 11.233 10.9139 11.271 11.053C11.458 11.7302 11.876 12.6061 12.287 13.1215C12.809 13.7751 13.833 13.874 14.937 13.9379C15.134 13.5669 15.859 13.5966 16.332 13.6946C15.766 13.4986 15.239 13.0226 14.802 12.6009C14.302 12.1179 13.792 11.599 13.767 10.9672C14.714 12.117 15.497 13.1215 17.219 13.6272C18.522 14.0096 20.045 13.4522 21.046 12.8362C21.462 12.5807 21.71 12.1747 22.006 11.8037C23.111 10.4037 23.626 8.42625 23.514 6.50125C23.467 5.70762 23.469 4.9175 23.164 4.38375C22.846 3.8255 21.77 3.325 21.14 3.83075C21.023 3.28825 21.664 2.95225 22.416 3.14825C21.88 2.54275 21.316 1.81475 20.554 1.4385V1.435ZM23.027 19.3436C24.064 18.8921 26.002 18.1291 26.653 19.3454C26.893 19.7934 27.175 20.5511 27.299 21.014C27.475 21.6667 27.099 23.0387 26.342 23.2584C25.665 23.4509 24.874 23.4404 24.058 23.2969C23.962 23.2269 23.855 23.1044 23.78 22.9784C23.197 22.9582 22.652 23.0046 22.192 23.2146C22.236 23.5909 21.944 23.6521 21.672 23.7309C21.469 24.4335 22.077 25.3514 21.932 25.9919C21.828 26.4486 21.186 26.5186 20.715 26.6044C20.7 26.8669 20.735 27.0699 20.768 27.2842C20.66 27.6316 20.176 27.8302 19.718 27.8792C18.21 28.0367 15.92 28.1094 14.468 27.6517C14.063 26.7829 13.744 25.7267 13.408 24.7336C11.993 24.8649 10.848 24.1999 9.77 23.7624C9.396 23.611 8.87 23.5261 8.74 23.2671C8.605 23.0151 8.66 22.5321 8.627 22.0771C8.542 20.9134 8.467 19.789 8.127 18.5964C7.969 18.0609 7.694 17.5901 7.502 17.0739C7.325 16.5961 7.015 16.0064 6.934 15.5286C6.814 14.8225 7.574 14.7831 8.06 14.4769C8.81 14.0044 9.4 13.7419 10.215 13.3149C10.455 13.188 11.183 12.8774 11.265 12.7199C11.429 12.4276 10.983 12.0155 10.865 11.7862C10.675 11.424 10.578 11.116 10.551 10.7581C9.868 10.6636 9.351 10.3084 9.038 9.90762C8.521 9.24437 8.162 8.01762 8.61 7.084C8.645 7.0105 8.81 6.86525 8.846 6.75325C8.896 6.531 8.75 6.23525 8.741 5.999C8.694 4.78537 8.976 3.7415 9.909 3.374C10.289 2.0615 11.644 1.61525 12.922 0.957247C13.4 0.712247 13.926 0.554747 14.47 0.379747C16.42 -0.248503 19.414 -0.130378 21.033 0.941497C21.719 1.3965 22.817 2.35462 23.209 3.05025C24.246 4.88337 24.172 7.94762 23.447 10.178C23.35 10.4772 23.207 10.9174 23.011 11.277C22.873 11.5281 22.446 12.0295 22.498 12.2526C22.551 12.4819 23.473 13.0944 23.671 13.2615C24.027 13.5616 24.703 13.9615 24.758 14.3395C24.818 14.742 24.555 15.295 24.422 15.6844L23.042 19.3419" fill="#231F20"/>
<path fill-rule="evenodd" clip-rule="evenodd" d="M16.107 10.3512C16.163 10.2856 16.473 10.185 16.907 10.3687C16.907 10.3687 16.394 10.444 16.437 11.1912L16.223 11.1536C16.223 11.1536 16.003 10.4746 16.109 10.3504" fill="#F7E4CD"/>
<path fill-rule="evenodd" clip-rule="evenodd" d="M19.856 16.7842C19.856 16.898 19.751 16.9899 19.621 16.9899C19.491 16.9899 19.386 16.898 19.386 16.7842C19.386 16.6705 19.491 16.5786 19.621 16.5786C19.751 16.5786 19.856 16.6705 19.856 16.7842ZM20.09 17.7467C20.09 17.8605 19.985 17.9524 19.855 17.9524C19.725 17.9524 19.62 17.8605 19.62 17.7467C19.62 17.633 19.725 17.5411 19.855 17.5411C19.985 17.5411 20.09 17.633 20.09 17.7467Z" fill="#1D1919"/>
</g>
<defs>
<clipPath id="clip0_1_85">
<rect width="32" height="28" fill="white"/>
</clipPath>
</defs>
</svg>
