<svg width="26" height="27" viewBox="0 0 26 27" fill="none" xmlns="http://www.w3.org/2000/svg">
<path d="M17.9591 9.38745C15.7828 6.32895 8.9077 -2.64085 5.36417 0.756606C4.48617 1.59831 4.91727 2.71088 6.04066 3.89944C9.51491 4.6339 14.0346 6.59733 17.9591 9.38745Z" fill="url(#paint0_linear_1_402)"/>
<path d="M22.7034 17.557C22.4232 17.8324 21.7904 17.7298 21.29 17.3282C20.7906 16.9262 20.6131 16.3767 20.8933 16.1013C21.1735 15.8259 21.8063 15.9278 22.306 16.3297C22.8061 16.732 22.9835 17.2815 22.7034 17.557ZM25.8747 20.2118C25.8713 20.1975 25.8699 20.1829 25.8661 20.1683C23.1111 8.95847 1.79505 0.304462 0.0727234 5.64056C-1.2136 9.62586 14.9904 11.9444 14.9904 11.9444C15.3301 11.997 15.589 12.2601 15.589 12.5772C15.589 12.9055 15.3111 13.1733 14.9533 13.2119C5.47157 12.8709 3.77434 18.0595 3.77434 18.0595C1.97337 23.2454 7.5516 27 7.5516 27C4.8625 17.3888 16.4471 21.4005 16.4471 21.4005C25.9995 24.3021 26.3348 21.9923 25.8747 20.2118Z" fill="url(#paint1_linear_1_402)"/>
<defs>
<linearGradient id="paint0_linear_1_402" x1="4.89597" y1="9.38745" x2="4.89597" y2="-929.349" gradientUnits="userSpaceOnUse">
<stop/>
<stop offset="1"/>
</linearGradient>
<linearGradient id="paint1_linear_1_402" x1="0" y1="27" x2="0" y2="-2270.63" gradientUnits="userSpaceOnUse">
<stop/>
<stop offset="1"/>
</linearGradient>
</defs>
</svg>
