<svg width="27" height="26" viewBox="0 0 27 26" fill="none" xmlns="http://www.w3.org/2000/svg">
<path d="M3.57172 0.464294H19.3956C21.1873 0.464294 22.6414 1.82558 22.6414 3.51001V19.3347C22.6414 19.8844 22.3155 20.644 21.9086 21.0433L18.981 23.8922C18.576 24.2877 17.7853 24.6072 17.2029 24.6072H3.74722C1.95751 24.6072 0.501434 23.2422 0.501434 21.5596V3.42087C0.501434 1.78101 1.87265 0.464294 3.57172 0.464294ZM17.7236 22.8429L20.7765 19.8696C20.871 19.7767 20.9636 19.5539 20.9636 19.409V3.50815C20.9565 3.11442 20.7873 2.73952 20.4933 2.46581C20.1993 2.1921 19.8045 2.04198 19.3956 2.04844H3.84172C3.62361 2.04721 3.4074 2.08753 3.20553 2.16705C3.00365 2.24658 2.8201 2.36376 2.66542 2.51185C2.51074 2.65993 2.388 2.836 2.30424 3.02993C2.22048 3.22387 2.17736 3.43183 2.17736 3.64187V21.5596C2.17736 22.3656 2.87936 23.023 3.74529 23.023H17.2646C17.4345 23.0137 17.5961 22.9496 17.7236 22.841V22.8429ZM17.5018 17.3123L20.9809 17.3494C21.4419 17.3494 21.8179 17.7023 21.8199 18.1424C21.8189 18.2475 21.7963 18.3513 21.7536 18.4479C21.7109 18.5445 21.6488 18.6321 21.5708 18.7056C21.4929 18.7791 21.4007 18.8371 21.2995 18.8762C21.1982 18.9153 21.09 18.9348 20.9809 18.9336L17.5018 18.8964C17.2954 18.8964 17.1354 19.045 17.1354 19.2307V23.0434C17.1344 23.1485 17.1118 23.2523 17.0691 23.3489C17.0264 23.4455 16.9643 23.5331 16.8863 23.6066C16.8084 23.6801 16.7162 23.7381 16.615 23.7772C16.5137 23.8163 16.4055 23.8358 16.2964 23.8346C16.1874 23.8358 16.0791 23.8163 15.9779 23.7772C15.8767 23.7381 15.7845 23.6801 15.7065 23.6066C15.6286 23.5331 15.5665 23.4455 15.5238 23.3489C15.481 23.2523 15.4585 23.1485 15.4575 23.0434V19.2307C15.4575 18.1666 16.3716 17.3123 17.5018 17.3123ZM8.51079 13.858C8.60752 13.9521 8.67317 14.0716 8.69944 14.2016C8.72572 14.3315 8.71146 14.4661 8.65845 14.5882C8.60544 14.7104 8.51606 14.8147 8.40157 14.888C8.28709 14.9613 8.15263 15.0003 8.01515 15.0002C7.83061 15.0008 7.65325 14.9314 7.52143 14.807L4.27758 11.7186C4.2125 11.6563 4.16086 11.5822 4.12562 11.5006C4.09038 11.419 4.07224 11.3315 4.07224 11.2432C4.07224 11.1548 4.09038 11.0673 4.12562 10.9857C4.16086 10.9041 4.2125 10.83 4.27758 10.7677L7.52143 7.67744C7.79143 7.41929 8.23886 7.41929 8.51079 7.67744C8.78272 7.93744 8.78272 8.34787 8.51079 8.62829L5.76643 11.2432L8.51079 13.8543V13.858ZM14.6301 8.62829C14.5651 8.56599 14.5134 8.49191 14.4782 8.41032C14.443 8.32873 14.4248 8.24123 14.4248 8.15287C14.4248 8.0645 14.443 7.977 14.4782 7.89541C14.5134 7.81382 14.5651 7.73974 14.6301 7.67744C14.9021 7.41929 15.3495 7.41929 15.6214 7.67744L18.8653 10.7677C18.9304 10.83 18.982 10.9041 19.0172 10.9857C19.0525 11.0673 19.0706 11.1548 19.0706 11.2432C19.0706 11.3315 19.0525 11.419 19.0172 11.5006C18.982 11.5822 18.9304 11.6563 18.8653 11.7186L15.6214 14.807C15.4891 14.9318 15.311 15.0013 15.1258 15.0002C14.9879 15.0007 14.853 14.9618 14.7381 14.8884C14.6232 14.815 14.5335 14.7104 14.4804 14.5879C14.4273 14.4653 14.4132 14.3304 14.4399 14.2001C14.4665 14.0698 14.5328 13.9501 14.6301 13.8562L17.3764 11.2432L14.6301 8.62829ZM13.3264 6.63001C13.6832 6.75629 13.8664 7.13515 13.7507 7.49172L10.7306 15.4384C10.6654 15.6052 10.5352 15.7408 10.3676 15.8164C10.2001 15.892 10.0086 15.9017 9.83379 15.8433C9.74581 15.815 9.66465 15.77 9.59514 15.7108C9.52564 15.6517 9.46923 15.5797 9.42927 15.4991C9.38931 15.4185 9.36662 15.3309 9.36256 15.2417C9.3585 15.1525 9.37316 15.0634 9.40565 14.9797L12.4258 7.03301C12.4913 6.86575 12.6224 6.72988 12.7907 6.65454C12.9591 6.57921 13.1514 6.5704 13.3264 6.63001Z" fill="black"/>
</svg>
