<svg width="27" height="26" viewBox="0 0 27 26" fill="none" xmlns="http://www.w3.org/2000/svg">
<path d="M23.8161 11.1854V8.69407L20.7474 8.21084C20.5647 7.51006 20.2801 6.85039 19.9032 6.24485L21.6924 3.7826L19.8689 2.02314L17.3517 3.77057C16.7244 3.40364 16.0359 3.12293 15.3049 2.94848L14.769 0H12.1895L11.6931 2.93946C10.9599 3.1129 10.2694 3.3886 9.64004 3.75353L7.13008 2.02314L5.30654 3.7826L7.07193 6.21979C6.68978 6.83034 6.40004 7.49603 6.2152 8.20784L3.18393 8.69407V11.1844L6.21208 11.7017C6.39485 12.4135 6.68562 13.0802 7.06778 13.6918L5.27851 16.1069L7.10204 17.8684L9.62966 16.16C10.261 16.5259 10.9495 16.8037 11.6827 16.9771L12.1895 19.9186H14.769L15.31 16.9701C16.038 16.7916 16.7255 16.5119 17.3527 16.144L19.898 17.8694L21.7205 16.1079L19.9042 13.6727C20.2801 13.0672 20.5657 12.4065 20.7464 11.7037L23.8161 11.1854ZM13.5 13.4321C11.5134 13.4321 9.90278 11.8782 9.90278 9.95928C9.90278 8.04241 11.5134 6.48747 13.5 6.48747C15.4866 6.48747 17.0962 8.04241 17.0962 9.95928C17.0972 11.8782 15.4866 13.4321 13.5 13.4321Z" fill="#030104"/>
<path d="M24.9231 18.9822V22.9924C24.9231 23.5448 24.4578 23.9949 23.8846 23.9949H3.11538C2.54215 23.9949 2.07692 23.5448 2.07692 22.9924V18.9822H0V22.9924C0 24.6526 1.39569 26 3.11538 26H23.8846C25.6043 26 27 24.6526 27 22.9924V18.9822H24.9231Z" fill="#030104"/>
</svg>
