<svg width="27" height="26" viewBox="0 0 27 26" fill="none" xmlns="http://www.w3.org/2000/svg">
<path d="M22.0069 7.58333C22.2642 6.16983 21.1346 4.875 19.6444 4.875H7.35512C5.86489 4.875 4.73538 6.16983 4.99257 7.58333" stroke="black" stroke-width="2"/>
<path d="M19.6874 4.87496C19.7193 4.59429 19.7353 4.45392 19.7355 4.33801C19.7381 3.22907 18.8706 2.29732 17.7256 2.179C17.6059 2.16663 17.4593 2.16663 17.1661 2.16663H9.83361C9.54039 2.16663 9.39377 2.16663 9.27407 2.179C8.12907 2.29732 7.26166 3.22907 7.26417 4.33799C7.26442 4.45392 7.28039 4.59427 7.3123 4.87496" stroke="black" stroke-width="2"/>
<path d="M16.4038 14.7506C17.032 15.1257 17.032 16.0964 16.4038 16.4715L12.6108 18.7358C12.0003 19.1002 11.25 18.6259 11.25 17.8754V13.3467C11.25 12.5963 12.0003 12.1219 12.6108 12.4863L16.4038 14.7506Z" stroke="black" stroke-width="2"/>
<path d="M2.68145 14.9425C2.17967 11.5152 1.92878 9.80166 2.99511 8.69252C4.06144 7.58337 5.95978 7.58337 9.75644 7.58337H17.2435C21.0402 7.58337 22.9385 7.58337 24.0049 8.69252C25.0712 9.80166 24.8203 11.5152 24.3186 14.9425L23.8427 18.1925C23.4492 20.8801 23.2525 22.2239 22.2432 23.0287C21.2338 23.8334 19.7451 23.8334 16.7677 23.8334H10.2323C7.25491 23.8334 5.76622 23.8334 4.75688 23.0287C3.74754 22.2239 3.55079 20.8801 3.15729 18.1925L2.68145 14.9425Z" stroke="black" stroke-width="2"/>
</svg>
