<svg clip-rule="evenodd" fill-rule="evenodd" stroke-linejoin="round" stroke-miterlimit="2" viewBox="0 0 560 400" xmlns="http://www.w3.org/2000/svg"><g fill-rule="nonzero"><g transform="matrix(.831388 0 0 .831388 145 48.2714)"><path d="m324.741 107.31c-.003-6.137-1.315-11.56-3.97-16.214-2.607-4.577-6.511-8.413-11.75-11.446-43.234-24.929-86.509-49.782-129.73-74.737-11.652-6.726-22.949-6.481-34.515.342-17.208 10.149-103.366 59.51-129.039 74.381-10.574 6.12-15.719 15.487-15.721 27.663-.016 50.134 0 100.266-.016 150.402.002 6.002 1.259 11.32 3.796 15.904 2.609 4.715 6.568 8.657 11.926 11.758 25.676 14.871 111.845 64.229 129.049 74.38 11.571 6.827 22.868 7.071 34.524.342 43.221-24.956 86.5-49.808 129.741-74.736 5.358-3.101 9.317-7.045 11.926-11.756 2.534-4.585 3.793-9.903 3.796-15.905 0 0 0-100.243-.017-150.378z" fill="#9b4993"/><path d="m162.875 182.011-159.079 91.594c2.609 4.715 6.568 8.657 11.926 11.758 25.676 14.871 111.845 64.229 129.049 74.38 11.571 6.827 22.868 7.071 34.524.342 43.221-24.956 86.5-49.808 129.741-74.736 5.358-3.101 9.317-7.045 11.926-11.756z" fill="#682876"/><path d="m115.758 209.142c9.257 16.16 26.659 27.06 46.621 27.06 20.085 0 37.586-11.038 46.796-27.371l-46.3-26.82z" fill="#682876"/><path d="m324.741 107.31c-.003-6.137-1.315-11.56-3.97-16.214l-157.896 90.915 158.087 91.582c2.534-4.585 3.793-9.903 3.796-15.905 0 0 0-100.243-.017-150.378z" fill="#823085"/><path d="m209.175 208.831c-9.21 16.333-26.711 27.371-46.796 27.371-19.962 0-37.364-10.9-46.621-27.06-4.496-7.853-7.082-16.945-7.082-26.643 0-29.659 24.044-53.702 53.703-53.702 19.834 0 37.143 10.764 46.446 26.759l46.939-27.03c-18.657-32.205-53.489-53.873-93.385-53.873-59.564 0-107.848 48.285-107.848 107.846 0 19.54 5.198 37.864 14.284 53.67 18.61 32.376 53.542 54.177 93.564 54.177 40.095 0 75.082-21.888 93.665-54.36z" fill="#fff"/></g><g fill="#fff" stroke-width=".831388"><path d="m359.34845416 178.799316h8.8684158v42.95449241h-8.8684158z"/><path d="m379.02491396 178.799316h8.86758441v42.95449241h-8.86758441z"/><path d="m352.14281436 186.0049558h42.9553238v8.86758441h-42.9553238z"/><path d="m352.14281436 205.6805842h42.9553238v8.8684158h-42.9553238z"/></g></g></svg>