<svg clip-rule="evenodd" fill-rule="evenodd" stroke-linejoin="round" stroke-miterlimit="2" viewBox="0 0 560 400" xmlns="http://www.w3.org/2000/svg"><g fill-rule="nonzero" transform="matrix(.541629 0 0 .541629 78.2127 -67.207)"><path d="m25.564 410.257h162.406v166.165h-162.406z" fill="#c5412b"/><path d="m47.416 512.464-.167-33.888s18.084 6.442 30.439 6.655l.2 21.718s-14.541-.005-30.079 5.772"/><path d="m84.064 485.032 9.96-.2.199 22.117h-9.761z"/><path d="m110.16 489.314-6.432 6.862 6.846 6.941 6.337-7.182z"/><path d="m100.398 468.78 21.393-.099.199 10.348h-21.293z"/><path d="m128.259 499.128-15.224 15.125 7.463 7.263 14.328-14.567z"/><path d="m94.211 431.424 33.888-.166s-6.74 18.979-6.953 31.334l-20.625.101s-.791-15.338-6.567-30.876"/><path d="m166.846 528.509-23.78 24.145s-8.703-18.164-17.313-27.027l14.473-14.694s11.433 10.255 26.523 17.117"/><g fill="#999"><path d="m204.511 410.257h117.293v34.586h-117.293z"/><path d="m204.511 444.843v131.579h36.09v-48.372h15.79v48.372h65.414v-35.338h-33.083v-13.034h33.083v-83.207h-33.083v48.804h-48.121v-48.804z"/><path d="m339.85 410.257v166.165h115.037v-166.165h-33.082v130.827h-47.369v-130.827z"/><path d="m587.218 410.257h-114.286v96.692h80.451v34.135h-80.451v35.338h114.286v-104.794h-80.451v-26.785h80.451z"/><path d="m604.511 410.257h115.038v34.586h-40.602v131.579h-32.33v-131.579h-42.106z"/></g></g></svg>