<svg
    width="50%"
    height="50%"
    viewBox="0 0 32 32"
    fill="none"
    xmlns="http://www.w3.org/2000/svg"
>
    <path
        fillRule="evenodd"
        clipRule="evenodd"
        d="M16.05 1.281A15.1 15.1 0 0 0 1.132 13.957a15.088 15.088 0 0 0 10.145 16.74c.76.138 1.029-.334 1.029-.732v-2.567c-4.217.917-5.107-2.029-5.107-2.029a4.04 4.04 0 0 0-1.677-2.214c-1.363-.926.11-.926.11-.926a3.178 3.178 0 0 1 2.309 1.556 3.224 3.224 0 0 0 4.392 1.26 3.206 3.206 0 0 1 .927-2.02c-3.355-.38-6.876-1.677-6.876-7.411a5.836 5.836 0 0 1 1.547-4.049 5.502 5.502 0 0 1 .149-3.993s1.27-.408 4.151 1.547c2.475-.68 5.088-.68 7.563 0 2.882-1.955 4.142-1.547 4.142-1.547a5.474 5.474 0 0 1 .186 3.965 5.836 5.836 0 0 1 1.547 4.049c0 5.8-3.53 7.069-6.895 7.411a3.566 3.566 0 0 1 1.029 2.78v4.141c0 .491.269.871 1.038.723a15.096 15.096 0 0 0 9.98-16.698A15.09 15.09 0 0 0 16.05 1.28Z"
        fill="#262626"
    />
</svg>