<svg
    width="50%"
    height="50%"
    viewBox="0 0 32 32"
    fill="none"
    xmlns="http://www.w3.org/2000/svg"
>
    <g clipPath="url(#linkedin_inline_svg__a)">
        <path
            d="M0 2.346C0 1.086 1.06.062 2.365.062h27.27C30.941.063 32 1.085 32 2.346v27.306c0 1.26-1.059 2.282-2.365 2.282H2.365C1.059 31.934 0 30.913 0 29.652V2.345Z"
            fill="#069"
        />
        <path
            d="M9.723 26.735v-14.35H4.935v14.35h4.789ZM7.33 10.427c1.67 0 2.709-1.102 2.709-2.479-.031-1.408-1.04-2.48-2.677-2.48-1.64 0-2.71 1.072-2.71 2.48 0 1.377 1.04 2.479 2.646 2.479h.031Zm5.044 16.308h4.788v-8.013c0-.428.031-.857.158-1.163.346-.857 1.133-1.745 2.456-1.745 1.733 0 2.426 1.316 2.426 3.245v7.676h4.788v-8.228c0-4.407-2.362-6.458-5.512-6.458-2.583 0-3.718 1.438-4.348 2.418h.032v-2.08h-4.788c.062 1.345 0 14.348 0 14.348Z"
            fill="#fff"
        />
    </g>
    <defs>
        <clipPath id="linkedin_inline_svg__a">
            <path fill="#fff" d="M0 0h32v32H0z" />
        </clipPath>
    </defs>
</svg>