<svg
    width="50%"
    height="50%"
    viewBox="0 0 32 32"
    fill="none"
    xmlns="http://www.w3.org/2000/svg"
>
    <path
        d="M6.583 20.522a3.28 3.28 0 1 1-3.28-3.28h3.28v3.28ZM8.227 20.522a3.28 3.28 0 0 1 6.559 0v8.197a3.28 3.28 0 1 1-6.56 0v-8.197Z"
        fill="#E01E5A"
    />
    <path
        d="M11.498 6.56a3.28 3.28 0 1 1 3.28-3.28v3.28h-3.28ZM11.5 8.223a3.28 3.28 0 0 1 0 6.56H3.28a3.28 3.28 0 1 1 0-6.56h8.22Z"
        fill="#36C5F0"
    />
    <path
        d="M25.422 11.502a3.28 3.28 0 1 1 3.28 3.28h-3.28v-3.28ZM23.778 11.5a3.28 3.28 0 1 1-6.56 0V3.28a3.28 3.28 0 1 1 6.56 0v8.22Z"
        fill="#2EB67D"
    />
    <path
        d="M20.498 25.441a3.28 3.28 0 1 1-3.28 3.28v-3.28h3.28ZM20.498 23.802a3.28 3.28 0 1 1 0-6.56h8.222a3.28 3.28 0 1 1 0 6.56H20.5Z"
        fill="#ECB22E"
    />
</svg>