<svg
    width="50%"
    height="50%"
    viewBox="0 0 32 32"
    fill="none"
    xmlns="http://www.w3.org/2000/svg"
>
    <path
        d="M31.439 6.599c-1.11.496-2.303.832-3.557.983a6.256 6.256 0 0 0 2.723-3.458 12.3 12.3 0 0 1-3.933 1.516 6.165 6.165 0 0 0-4.52-1.972c-3.42 0-6.193 2.798-6.193 6.251 0 .488.056.963.16 1.422-5.15-.262-9.712-2.75-12.767-6.53a6.289 6.289 0 0 0-.838 3.141 6.265 6.265 0 0 0 2.755 5.203 6.138 6.138 0 0 1-2.805-.782v.08c0 3.028 2.134 5.553 4.968 6.128a6.187 6.187 0 0 1-2.797.107c.788 2.482 3.075 4.29 5.786 4.338a12.359 12.359 0 0 1-7.693 2.676c-.5 0-.993-.03-1.478-.087a17.404 17.404 0 0 0 9.493 2.808c11.394 0 17.623-9.522 17.623-17.78 0-.268-.006-.539-.018-.807a12.654 12.654 0 0 0 3.088-3.233l.003-.004Z"
        fill="#259DF4"
    />
</svg>