<svg
    width="50%"
    height="50%"
    viewBox="0 0 32 32"
    fill="none"
    xmlns="http://www.w3.org/2000/svg"
>
    <path
        d="m16.7 27.165-6.561-.117c-2.125-.041-4.255.04-6.338-.382-3.168-.632-3.393-3.73-3.628-6.328A43.327 43.327 0 0 1 .586 9.345C.93 7.312 2.288 6.1 4.386 5.967c7.084-.479 14.215-.423 21.283-.198.746.02 1.498.132 2.234.26 3.634.62 3.722 4.13 3.957 7.086a39.213 39.213 0 0 1-.313 8.95c-.36 2.456-1.05 4.514-3.957 4.713-3.644.26-7.204.468-10.858.402 0-.015-.021-.015-.031-.015Z"
        fill="#fff"
    />
    <path
        d="m16.7 27.165-6.561-.117c-2.125-.041-4.255.04-6.338-.382-3.168-.632-3.393-3.73-3.628-6.328A43.327 43.327 0 0 1 .586 9.345C.93 7.312 2.288 6.1 4.386 5.967c7.084-.479 14.215-.423 21.283-.198.746.02 1.498.132 2.234.26 3.634.62 3.722 4.13 3.957 7.086a39.213 39.213 0 0 1-.313 8.95c-.36 2.456-1.05 4.514-3.957 4.713-3.644.26-7.204.468-10.858.402 0-.015-.021-.015-.031-.015Zm-3.857-6.215c2.746-1.539 5.44-3.052 8.17-4.58-2.752-1.539-5.44-3.052-8.17-4.58v9.16Z"
        fill="red"
    />
</svg>