<svg viewBox="0 0 24 24" xmlns="http://www.w3.org/2000/svg"><path d="m0 0h24v24h-24z" fill="#fff" opacity="0"/><g fill="#231f20"><path d="m15 16h-6a1 1 0 0 0 0 2h6a1 1 0 0 0 0-2z"/><path d="m9 14h3a1 1 0 0 0 0-2h-3a1 1 0 0 0 0 2z"/><path d="m19.74 8.33-5.44-6a1 1 0 0 0 -.74-.33h-7a2.53 2.53 0 0 0 -2.56 2.5v15a2.53 2.53 0 0 0 2.56 2.5h10.88a2.53 2.53 0 0 0 2.56-2.5v-10.5a1 1 0 0 0 -.26-.67zm-5.74-3.33 2.74 3h-2a.79.79 0 0 1 -.74-.85zm3.44 15h-10.88a.53.53 0 0 1 -.56-.5v-15a.53.53 0 0 1 .56-.5h5.44v3.15a2.79 2.79 0 0 0 2.71 2.85h3.29v9.5a.53.53 0 0 1 -.56.5z"/></g></svg>