<svg width="190" height="220" xmlns="http://www.w3.org/2000/svg" version="1.1">
 <title>print 2</title>
 <defs>
  <linearGradient id="linearGradient-1" y2="100.010525%" x2="4.79894665e-14%" y1="5.9372743e-14%" x1="4.79894665e-14%">
   <stop offset="0%" stop-color="#FAD961"/>
   <stop offset="100%" stop-color="#F76B1C"/>
  </linearGradient>
  <linearGradient id="linearGradient-2" y2="100.005594%" x2="-1.2055617e-14%" y1="-6.0644458e-15%" x1="-1.2055617e-14%">
   <stop offset="0%" stop-color="#FAD961"/>
   <stop offset="100%" stop-color="#F76B1C"/>
  </linearGradient>
 </defs>
 <g>
  <title>Layer 1</title>
  <g fill-rule="evenodd" fill="none" id="Material-Design-Stickersheet">
   <g fill-rule="nonzero" id="print-2">
    <g id="print">
     <g id="Group">
      <g id="Path" fill="url(#linearGradient-1)" transform="rotate(-180 84.3619 41.1803) translate(79.5542 36.6802) scale(-1 1) translate(-79.5542 -36.6802) translate(34.0845 0)">
       <path id="svg_1" d="m86.13164,4.50003c-15.15047,23.90164 -63.01143,93.99887 -87.67985,67.44842c-6.11221,-6.57775 -3.11105,-15.27226 4.7094,-24.56061c24.18619,-5.73967 55.65002,-21.08353 82.97045,-42.88781"/>
      </g>
      <g id="Shape" fill="url(#linearGradient-2)" transform="rotate(-180 95.3077 125.722) translate(90.5 121.222) scale(-1 1) translate(-90.5 -121.222) translate(0 31.4449)">
       <path id="svg_2" d="m153.24242,78.29536c-1.95059,-2.15195 -6.35553,-1.35051 -9.83913,1.78823c-3.47647,3.14113 -4.71207,7.43547 -2.76151,9.58766c1.95056,2.15242 6.35548,1.35602 9.8343,-1.78511c3.48129,-3.144 4.71689,-7.4381 2.76633,-9.59078l0,0zm22.07739,-20.74709c-0.02393,0.11183 -0.03357,0.22581 -0.05994,0.34051c-19.1792,87.60234 -167.57118,155.2318 -179.56122,113.5312c-8.95481,-31.14435 103.84978,-49.26344 103.84978,-49.26344c2.36514,-0.41118 4.16714,-2.4671 4.16714,-4.94471c0,-2.56621 -1.93469,-4.65878 -4.42529,-4.96051c-66.00735,2.66489 -77.82268,-37.88297 -77.82268,-37.88297c-12.53757,-40.52705 26.29544,-69.86832 26.29544,-69.86832c-18.72021,75.10969 61.92654,43.75942 61.92654,43.75942c66.49874,-22.67614 68.83315,-4.62502 65.63021,9.28882"/>
      </g>
     </g>
     <g stroke-width="1.92115" stroke="#FFFFFF" fill="#FF914D" id="text-logo-path-group">
      <g id="text-logo-path-0">
       <path id="Shape" d="m218.74657,167.84863l0,0l0,-76.05846c1.07585,-0.17932 2.76646,-0.44827 5.07185,-0.8069c2.29257,-0.34581 4.49548,-0.51871 6.60875,-0.51871l0,0c2.20293,0 4.14969,0.1729 5.84033,0.51871c1.69061,0.35863 3.10587,0.96698 4.24573,1.8251c1.15271,0.87091 2.02362,2.06844 2.61279,3.59254c0.58914,1.52412 0.88373,3.52853 0.88373,6.01323l0,0l0,22.93855l29.97002,-34.40784c6.51913,0 11.19394,1.22313 14.02448,3.6694c2.84332,2.43345 4.26495,5.3408 4.26495,8.72202l0,0c0,2.48471 -0.63394,4.82851 -1.90192,7.03142c-1.26794,2.20294 -3.28519,4.71324 -6.0517,7.53094l0,0l-18.00122,18.00122c2.38223,2.67677 4.89893,5.45607 7.55011,8.33777c2.65125,2.89458 5.24481,5.71227 7.78073,8.45313c2.53592,2.74083 4.98859,5.35361 7.35806,7.83824c2.36942,2.48474 4.41864,4.64282 6.14771,6.47433l0,0c0,2.11324 -0.38425,3.98959 -1.15274,5.629c-0.78125,1.63937 -1.8251,3.03542 -3.13144,4.18811c-1.31918,1.15268 -2.78571,2.0108 -4.39951,2.57434c-1.62659,0.56355 -3.34921,0.84528 -5.16791,0.84528l0,0c-3.94476,0 -7.17233,-0.98621 -9.68265,-2.95857c-2.51028,-1.9724 -4.91174,-4.29695 -7.20432,-6.97377l0,0l-20.2682,-23.63019l0,31.87195c-1.07584,0.28177 -2.76645,0.56354 -5.07181,0.84531c-2.2926,0.28177 -4.54037,0.42265 -6.74329,0.42265l0,0c-2.20294,0 -4.14969,-0.16649 -5.8403,-0.49953c-1.69061,-0.33298 -3.11227,-0.92854 -4.26495,-1.78665c-1.13989,-0.87094 -2.00441,-2.06845 -2.59357,-3.59256c-0.58914,-1.52411 -0.88373,-3.55414 -0.88373,-6.09006zm80.7654,-24.76366l0,0c0,-6.32701 1.04385,-11.77672 3.1315,-16.34905c2.08765,-4.57233 4.8093,-8.32499 8.16489,-11.25797c3.35562,-2.93295 7.19153,-5.09103 11.50772,-6.47427c4.31619,-1.38322 8.72211,-2.07485 13.21753,-2.07485l0,0c5.11032,0 9.75314,0.76208 13.92841,2.28619c4.17529,1.52412 7.77429,3.63098 10.79688,6.3206c3.03543,2.70241 5.39206,5.92995 7.06985,9.68261c1.69061,3.75266 2.53595,7.83193 2.53595,12.23774l0,0c0,3.27875 -0.91577,5.77629 -2.74728,7.49252c-1.81866,1.71622 -4.37381,2.83046 -7.66537,3.3428l0,0l-35.52219,5.34082c1.07584,3.18906 3.23398,5.57132 6.47437,7.14667c3.2403,1.57535 6.99292,2.36304 11.25793,2.36304l0,0c3.93198,0 7.64618,-0.50592 11.1427,-1.5177c3.49646,-1.01184 6.34619,-2.19653 8.54913,-3.55415l0,0c1.54971,0.93494 2.8497,2.27336 3.8999,4.01521c1.06305,1.72903 1.59457,3.55414 1.59457,5.4753l0,0c0,4.31615 -2.01721,7.53093 -6.05164,9.64415l0,0c-3.09946,1.6394 -6.55756,2.75371 -10.37421,3.34285c-3.8295,0.58916 -7.42844,0.88371 -10.79694,0.88371l0,0c-5.68661,0 -10.95691,-0.80045 -15.8111,-2.40143c-4.8541,-1.5882 -9.07425,-3.96399 -12.6604,-7.12753c-3.58615,-3.1763 -6.42307,-7.16586 -8.51071,-11.96873c-2.08765,-4.80287 -3.1315,-10.41905 -3.1315,-16.84851zm22.65042,-5.62901l0,0l24.62927,-4.0152c-0.28177,-1.92114 -1.33841,-3.8423 -3.16992,-5.76347c-1.83151,-1.92117 -4.52759,-2.88171 -8.08813,-2.88171l0,0c-2.29254,0 -4.27127,0.38422 -5.93628,1.15268c-1.66504,0.78128 -3.02908,1.76746 -4.09213,2.9586c-1.05023,1.19112 -1.8443,2.52951 -2.38223,4.0152c-0.53793,1.47289 -0.85812,2.98419 -0.96057,4.53391zm59.45978,55.79031l0,0l0,-69.16154c0,-2.57436 0.56357,-4.68123 1.69064,-6.32059c1.12708,-1.65219 2.65118,-3.15709 4.57236,-4.51471l0,0c2.94574,-1.92117 6.62796,-3.45808 11.04663,-4.61078c4.40582,-1.13989 9.34964,-1.70983 14.83136,-1.70983l0,0c5.77628,0 11.13629,0.73644 16.08008,2.20934c4.95657,1.47287 9.21518,3.75905 12.7757,6.85852c3.56055,3.09945 6.35263,6.96738 8.37625,11.60377c2.0108,4.64918 3.0162,10.18848 3.0162,16.61799l0,0c0,6.13489 -0.8645,11.5141 -2.59357,16.1377c-1.74182,4.62357 -4.19452,8.49149 -7.358,11.60376c-3.16348,3.12508 -6.9866,5.46246 -11.46936,7.01221c-4.48267,1.54974 -9.46487,2.32462 -14.94656,2.32462l0,0c-4.12408,0 -7.94717,-0.63397 -11.46936,-1.90195l0,0l0,23.9183c-0.93497,0.28183 -2.47186,0.59561 -4.61078,0.94141c-2.13885,0.35861 -4.30975,0.53793 -6.5127,0.53793l0,0c-2.10046,0 -3.996,-0.15367 -5.68661,-0.46111c-1.69061,-0.30734 -3.11227,-0.8965 -4.26495,-1.76744c-1.15271,-0.85814 -2.01721,-2.03 -2.59357,-3.5157c-0.58914,-1.47292 -0.88376,-3.40685 -0.88376,-5.8019zm24.41791,-65.01184l0,31.73746c1.1655,0.56354 2.4079,1.03104 3.72708,1.40244c1.3064,0.37143 2.73447,0.55716 4.28418,0.55716l0,0c9.90036,0 14.85052,-5.90436 14.85052,-17.71304l0,0c0,-6.14771 -1.22314,-10.71362 -3.6694,-13.69781c-2.43347,-2.97143 -5.97479,-4.4571 -10.62399,-4.4571l0,0c-1.8187,0 -3.44528,0.22412 -4.87973,0.67239c-1.43448,0.43549 -2.66403,0.93497 -3.68866,1.49851l0,0zm60.36282,40.53632l0,0l0,-83.58936c1.07584,-0.19211 2.63196,-0.46107 4.6684,-0.8069c2.04926,-0.34581 4.12408,-0.51869 6.22458,-0.51869l0,0c2.11328,0 4.01523,0.14729 5.70587,0.44186c1.69061,0.30739 3.11227,0.88373 4.26501,1.72902c1.13986,0.84532 2.03,2.01723 2.67035,3.51573c0.62762,1.49849 0.94141,3.44527 0.94141,5.84028l0,0l0,83.58942c-1.07587,0.17932 -2.64478,0.43546 -4.70685,0.76846c-2.06204,0.33301 -4.14969,0.49948 -6.263,0.49948l0,0c-2.11331,0 -4.01526,-0.14085 -5.70587,-0.42262c-1.69061,-0.28177 -3.1059,-0.85811 -4.24576,-1.72905c-1.15268,-0.87091 -2.03641,-2.04282 -2.65118,-3.51575c-0.60196,-1.48566 -0.90295,-3.41962 -0.90295,-5.80188zm36.79022,-24.70604l0,0c0,-5.67377 0.91577,-10.80969 2.74719,-15.40759c1.83148,-4.59797 4.41223,-8.49793 7.74219,-11.69986c3.33002,-3.21475 7.29395,-5.69302 11.89191,-7.43488c4.58508,-1.72902 9.72101,-2.59356 15.40759,-2.59356l0,0c5.67377,0 10.81604,0.89013 15.42676,2.6704c4.62354,1.78027 8.58752,4.27777 11.89197,7.49252c3.30426,3.21473 5.87225,7.12109 7.70374,11.71901c1.83148,4.58517 2.74725,9.66983 2.74725,15.25395l0,0c0,5.95561 -0.91577,11.2708 -2.74725,15.9456c-1.83148,4.66202 -4.39948,8.57472 -7.70374,11.73825c-3.30444,3.17633 -7.26843,5.58417 -11.89197,7.22354c-4.61072,1.63936 -9.75299,2.45908 -15.42676,2.45908l0,0c-5.68658,0 -10.82251,-0.87094 -15.40759,-2.61276c-4.59796,-1.72903 -8.56189,-4.20091 -11.89191,-7.41565c-3.32996,-3.21474 -5.91071,-7.13388 -7.74219,-11.75748c-1.83142,-4.61075 -2.74719,-9.80429 -2.74719,-15.58058zm25.10931,0l0,0c0,5.86597 1.12701,10.36147 3.38116,13.48651c2.25415,3.1123 5.3985,4.66844 9.43292,4.66844l0,0c4.03436,0 7.12738,-1.58176 9.27905,-4.7453c2.16449,-3.16345 3.24677,-7.63336 3.24677,-13.40965l0,0c0,-5.76344 -1.10144,-10.20769 -3.30438,-13.33278c-2.21576,-3.11225 -5.33441,-4.6684 -9.35596,-4.6684l0,0c-4.03442,0 -7.15955,1.55615 -9.37524,4.6684c-2.20288,3.12509 -3.30432,7.56934 -3.30432,13.33278zm55.86682,-31.37241l0,0c1.3576,-1.35762 3.16357,-2.54233 5.41772,-3.55414c2.25415,-1.01181 4.7196,-1.51772 7.39636,-1.51772l0,0c3.36841,0 6.15411,0.70444 8.35699,2.11327c2.20294,1.40884 3.84875,4.03442 4.93732,7.87671l0,0l11.31555,39.6142l0.63403,0c1.17828,-3.27872 2.3053,-6.84572 3.38116,-10.70079c1.07581,-3.84232 2.14526,-7.79993 3.20831,-11.87273c1.05023,-4.08568 2.03003,-8.17133 2.93939,-12.25698c0.92212,-4.07285 1.73541,-8.08167 2.43988,-12.02644l0,0c3.47083,-1.83151 7.24268,-2.74724 11.31549,-2.74724l0,0c3.38123,0 6.17322,0.73004 8.37622,2.19011c2.20288,1.44727 3.30438,3.93195 3.30438,7.45409l0,0c0,2.57433 -0.3266,5.57775 -0.9798,9.01022c-0.65326,3.41967 -1.53052,7.05064 -2.63202,10.89295c-1.10144,3.8551 -2.40784,7.81906 -3.91907,11.89194c-1.49847,4.08566 -3.0675,8.09445 -4.70685,12.02641c-1.63934,3.94478 -3.3172,7.66539 -5.03345,11.16191c-1.70343,3.49649 -3.38123,6.64719 -5.03333,9.45209l0,0c-2.664,4.70038 -5.1615,8.53632 -7.49249,11.50769c-2.31818,2.98422 -4.53387,5.32162 -6.64716,7.01218c-2.10046,1.67787 -4.20728,2.82416 -6.32056,3.4389c-2.11334,0.61478 -4.31622,0.92212 -6.60876,0.92212l0,0c-4.03442,0 -7.30676,-1.19748 -9.81708,-3.59253c-2.51025,-2.39502 -4.00232,-5.5137 -4.4762,-9.35599l0,0c3.09943,-2.39505 6.18604,-5.05905 9.25989,-7.992c3.07385,-2.93298 5.85309,-5.9236 8.33771,-8.9718l0,0c-1.65216,-0.46112 -3.41315,-1.59456 -5.28308,-3.40045c-1.86993,-1.80591 -3.91278,-5.14868 -6.12848,-10.02841l0,0c-1.07587,-2.39505 -2.20923,-5.07828 -3.40039,-8.04962c-1.20392,-2.98422 -2.44623,-6.39748 -3.72705,-10.23978c-1.29352,-3.8551 -2.63196,-8.25455 -4.0152,-13.1983c-1.38324,-4.94379 -2.84967,-10.63041 -4.39948,-17.05986z"/>
      </g>
     </g>
    </g>
   </g>
  </g>
 </g>
</svg>