<?xml version="1.0" encoding="UTF-8"?>
<svg width="412px" height="66px" viewBox="0 0 412 66" version="1.1" xmlns="http://www.w3.org/2000/svg" xmlns:xlink="http://www.w3.org/1999/xlink">
    <title>Group 13</title>
    <defs>
        <radialGradient cx="45.9270905%" cy="50%" fx="45.9270905%" fy="50%" r="172.093006%" gradientTransform="translate(0.459271,0.500000),scale(0.273731,1.000000),rotate(-167.148479),translate(-0.459271,-0.500000)" id="radialGradient-1">
            <stop stop-color="#FAD961" offset="0%"></stop>
            <stop stop-color="#F76B1C" offset="100%"></stop>
        </radialGradient>
    </defs>
    <g id="Page-1" stroke="none" stroke-width="1" fill="none" fill-rule="evenodd">
        <g id="Group-13" transform="translate(-16.000000, -24.000000)" fill-rule="nonzero">
            <g id="Group-12">
                <text id="GitTogethe" fill="url(#radialGradient-1)" font-family="BalooBhaijaan-Regular, Baloo Bhaijaan" font-size="72" font-weight="600">
                    <tspan x="0" y="76"> GitTogethe</tspan>
                </text>
                <g id="git-merge-svgrepo-com" transform="translate(386.000000, 28.000000)" fill="#F77623" stroke="#F77623" stroke-linejoin="bevel" stroke-width="2">
                    <path d="M34.1628928,20.5719967 C31.7279575,20.5732175 29.4776744,21.8746703 28.2560219,23.9882396 C23.7476692,23.8586173 19.1613837,22.625599 15.8497782,20.6319872 C12.4121993,18.562316 10.5428823,15.9184504 10.2823949,12.7743072 C12.9487278,11.2095398 14.2372218,8.04431922 13.4252458,5.05380846 C12.6132698,2.06329769 9.90280086,-0.00862123202 6.81396186,2.69711491e-05 C3.72512285,0.00872945507 1.02625471,2.0958411 0.230974251,5.09086602 C-0.564306209,8.08589094 0.741825017,11.2438243 3.41684522,12.7935898 L3.41684522,35.2064571 C0.738741392,36.7580014 -0.566946092,39.9210972 0.233427977,42.9184507 C1.03380205,45.9158043 3.74066479,48.000027 6.83307273,48.000027 C9.92548067,48.000027 12.6323434,45.9158043 13.4327175,42.9184507 C14.2330916,39.9210972 12.9274041,36.7580014 10.2493002,35.2064571 L10.2493002,25.0873507 C15.0277485,28.7296291 21.702203,30.6986019 28.2442786,30.8464356 C29.8984367,33.7322222 33.3794658,35.008555 36.498038,33.8727084 C39.6166102,32.7368618 41.471339,29.5171389 40.8957276,26.2385239 C40.3201161,22.9599089 37.4805381,20.5700469 34.1628928,20.5719967 Z M6.5,3.00002697 C8.43299662,3.00002697 10,4.56703035 10,6.50002697 C10,8.4330236 8.43299662,10.000027 6.5,10.000027 C4.56700338,10.000027 3,8.4330236 3,6.50002697 C3,4.56703035 4.56700338,3.00002697 6.5,3.00002697 Z M6.5,45.000027 C4.56700338,45.000027 3,43.4330236 3,41.500027 C3,39.5670303 4.56700338,38.000027 6.5,38.000027 C8.43299662,38.000027 10,39.5670303 10,41.500027 C10,43.4330236 8.43299662,45.000027 6.5,45.000027 Z M34.5,31.000027 C32.5670034,31.000027 31,29.4330236 31,27.500027 C31,25.5670303 32.5670034,24.000027 34.5,24.000027 C36.4329966,24.000027 38,25.5670303 38,27.500027 C38,29.4330236 36.4329966,31.000027 34.5,31.000027 Z" id="Shape" transform="translate(20.500000, 24.000013) scale(1, -1) translate(-20.500000, -24.000013) "></path>
                </g>
            </g>
        </g>
    </g>
</svg>