<?xml version="1.0" encoding="UTF-8"?> <svg xmlns="http://www.w3.org/2000/svg" id="Layer_1" data-name="Layer 1" viewBox="0 0 393.67 129.1"><defs><style>.cls-1{fill:#ea4335;}.cls-2{fill:#fbbc05;}.cls-3{fill:#4285f4;}.cls-4{fill:#34a853;}</style></defs><title>google-logo-web</title><path class="cls-1" d="M169.93,125.86c0,18.56-14.54,32.24-32.37,32.24s-32.37-13.68-32.37-32.24,14.54-32.25,32.37-32.25S169.93,107.17,169.93,125.86Zm-14.17,0c0-11.6-8.43-19.54-18.2-19.54s-18.2,7.94-18.2,19.54,8.43,19.54,18.2,19.54S155.76,137.34,155.76,125.86Z" transform="translate(-3.16 -57.95)"></path><path class="cls-2" d="M240.27,125.86c0,18.56-14.54,32.24-32.37,32.24s-32.37-13.68-32.37-32.24,14.54-32.25,32.37-32.25S240.27,107.17,240.27,125.86Zm-14.17,0c0-11.6-8.43-19.54-18.2-19.54s-18.2,7.94-18.2,19.54,8.43,19.54,18.2,19.54S226.1,137.34,226.1,125.86Z" transform="translate(-3.16 -57.95)"></path><path class="cls-3" d="M307.79,95.62v57.84c0,23.82-14,33.59-30.65,33.59A30.74,30.74,0,0,1,248.55,168l12.34-5.13c2.2,5.25,7.57,11.48,16.25,11.48,10.62,0,17.22-6.6,17.22-18.93v-4.64h-.49c-3.18,3.9-9.28,7.32-17,7.32-16.12,0-30.9-14-30.9-32.12s14.78-32.37,30.9-32.37c7.7,0,13.8,3.42,17,7.21h.49v-5.2ZM295.34,126c0-11.36-7.58-19.66-17.23-19.66s-17.95,8.3-17.95,19.66,8.18,19.42,17.95,19.42S295.34,137.22,295.34,126Z" transform="translate(-3.16 -57.95)"></path><path class="cls-4" d="M331.4,61.37v94.78H317.23V61.37Z" transform="translate(-3.16 -57.95)"></path><path class="cls-1" d="M385.23,136.48l11,7.33a32.09,32.09,0,0,1-26.88,14.29c-18.32,0-31.62-14.16-31.62-32.24,0-19.18,13.43-32.25,30-32.25s24.91,13.32,27.6,20.52l1.47,3.67-43.12,17.83c3.3,6.47,8.43,9.77,15.63,9.77S381.57,141.86,385.23,136.48Zm-33.83-11.6,28.82-12c-1.58-4-6.35-6.84-12-6.84C361.05,106.07,351,112.42,351.4,124.88Z" transform="translate(-3.16 -57.95)"></path><path class="cls-3" d="M54,158.1c-27.6,0-50.81-22.47-50.81-50.07S26.37,58,54,58A47.73,47.73,0,0,1,88.3,71.75L78.65,81.4A34.9,34.9,0,0,0,54,71.63c-20.15,0-35.91,16.24-35.91,36.4S33.82,144.42,54,144.42c13.07,0,20.52-5.25,25.29-10,3.91-3.91,6.47-9.53,7.45-17.22H54V103.51H100a44.47,44.47,0,0,1,.73,8.55c0,10.26-2.81,23-11.84,32C80.11,153.22,68.88,158.1,54,158.1Z" transform="translate(-3.16 -57.95)"></path></svg> 