<?xml version="1.0" encoding="utf-8"?>
<!-- Generator: Adobe Illustrator 16.0.0, SVG Export Plug-In . SVG Version: 6.00 Build 0)  -->
<!DOCTYPE svg PUBLIC "-//W3C//DTD SVG 1.1//EN" "http://www.w3.org/Graphics/SVG/1.1/DTD/svg11.dtd">
<svg version="1.1" id="Layer_1" xmlns="http://www.w3.org/2000/svg" xmlns:xlink="http://www.w3.org/1999/xlink" x="0px" y="0px"
	 width="601.878px" height="89.652px" viewBox="0 0 601.878 89.652" enable-background="new 0 0 601.878 89.652"
	 xml:space="preserve">
<g>
	<path fill="#FF7000" d="M21.472,0v88.773H0V0H21.472z"/>
	<path fill="#FF7000" d="M93.853,25.992c4.728,5.357,7.094,12.724,7.094,22.1v40.682h-21.47v-38.17
		c0-4.689-1.236-8.352-3.703-10.988c-2.471-2.637-5.758-3.956-9.857-3.956c-4.355,0-7.809,1.381-10.359,4.145
		c-2.555,2.762-3.83,6.698-3.83,11.804v37.166H30.256V18.71h21.471v12.806c2.008-4.184,5-7.489,8.979-9.919
		c3.975-2.426,8.641-3.641,13.999-3.641C82.741,17.956,89.123,20.635,93.853,25.992z"/>
	<path fill="#FF7000" d="M157.969,24.485c5.314,4.437,8.643,10.295,9.982,17.578H147.86c-0.587-2.845-1.904-5.085-3.956-6.719
		c-2.052-1.631-4.625-2.448-7.721-2.448c-2.428,0-4.27,0.523-5.524,1.57c-1.256,1.048-1.884,2.532-1.884,4.457
		c0,2.179,1.149,3.81,3.453,4.897c2.301,1.088,5.92,2.179,10.861,3.265c5.355,1.256,9.751,2.533,13.184,3.83
		c3.432,1.299,6.404,3.412,8.916,6.342s3.768,6.863,3.768,11.803c0,4.018-1.09,7.576-3.268,10.672
		c-2.177,3.098-5.316,5.525-9.416,7.283c-4.102,1.758-8.959,2.637-14.564,2.637c-9.461,0-17.035-2.092-22.728-6.279
		c-5.694-4.184-9.166-10.17-10.422-17.955h20.718c0.334,3.016,1.611,5.316,3.83,6.908c2.216,1.59,5.084,2.385,8.602,2.385
		c2.426,0,4.268-0.564,5.523-1.695s1.884-2.615,1.884-4.457c0-2.428-1.151-4.164-3.453-5.213c-2.302-1.045-6.05-2.152-11.239-3.326
		c-5.189-1.088-9.459-2.26-12.806-3.516c-3.349-1.254-6.235-3.283-8.663-6.09c-2.43-2.805-3.643-6.634-3.643-11.49
		c0-6.277,2.387-11.362,7.157-15.255c4.772-3.893,11.509-5.84,20.216-5.84C145.557,17.829,152.652,20.05,157.969,24.485z"/>
	<path fill="#FF7000" d="M220.375,70.316v18.457h-9.67c-8.205,0-14.587-2.029-19.148-6.09c-4.563-4.059-6.844-10.777-6.844-20.152
		V36.789h-9.416V18.71h9.416V1.506h21.473V18.71h14.062v18.079h-14.062v26.117c0,2.766,0.564,4.689,1.694,5.777
		c1.131,1.09,3.033,1.633,5.713,1.633H220.375z"/>
	<path fill="#FF7000" d="M270.447,21.472c3.85,2.43,6.695,5.735,8.537,9.919V18.71h21.347v70.063h-21.347v-12.68
		c-1.842,4.186-4.688,7.49-8.537,9.918c-3.852,2.428-8.457,3.641-13.813,3.641c-5.775,0-10.945-1.445-15.506-4.332
		c-4.564-2.887-8.163-7.051-10.8-12.492s-3.954-11.803-3.954-19.088c0-7.363,1.317-13.748,3.954-19.148
		c2.637-5.398,6.235-9.542,10.8-12.431c4.561-2.887,9.73-4.332,15.506-4.332C261.99,17.829,266.596,19.044,270.447,21.472z
		 M252.428,41.185c-2.805,3.013-4.205,7.2-4.205,12.556c0,5.359,1.4,9.545,4.205,12.557c2.804,3.014,6.508,4.521,11.112,4.521
		c4.521,0,8.224-1.549,11.113-4.646c2.887-3.094,4.331-7.24,4.331-12.432c0-5.273-1.444-9.437-4.331-12.492
		c-2.89-3.056-6.593-4.584-11.113-4.584C258.936,36.664,255.231,38.171,252.428,41.185z"/>
	<path fill="#FFD155" d="M367.754,68.307h-38.926l-7.409,20.467h-12.304l32.771-86.89h12.936l32.645,86.89h-12.304L367.754,68.307z
		 M364.489,59.393l-16.198-44.701l-16.198,44.701H364.489z"/>
	<path fill="#FFD155" d="M432.421,25.05c4.728,4.061,7.596,9.523,8.602,16.385h-10.925c-0.503-4.1-2.197-7.471-5.087-10.107
		c-2.887-2.637-6.759-3.954-11.613-3.954c-4.103,0-7.304,0.984-9.605,2.95c-2.303,1.968-3.452,4.625-3.452,7.975
		c0,2.51,0.772,4.541,2.323,6.088c1.548,1.552,3.472,2.722,5.774,3.517c2.303,0.797,5.462,1.654,9.481,2.574
		c5.104,1.174,9.229,2.365,12.367,3.578c3.138,1.215,5.817,3.16,8.036,5.84c2.216,2.68,3.328,6.277,3.328,10.797
		c0,5.611-2.115,10.172-6.343,13.688c-4.227,3.518-9.855,5.273-16.888,5.273c-8.203,0-14.9-1.967-20.09-5.902
		c-5.189-3.934-8.245-9.416-9.167-16.447h11.05c0.419,4.186,2.239,7.578,5.463,10.172c3.222,2.594,7.471,3.893,12.744,3.893
		c3.934,0,7.01-1.006,9.229-3.016c2.217-2.01,3.327-4.645,3.327-7.91c0-2.678-0.797-4.811-2.387-6.404
		c-1.591-1.59-3.559-2.803-5.899-3.641c-2.346-0.836-5.569-1.715-9.669-2.637c-5.107-1.17-9.188-2.342-12.242-3.516
		c-3.057-1.172-5.65-3.033-7.785-5.588c-2.136-2.553-3.203-6.007-3.203-10.358c0-5.776,2.137-10.442,6.404-14.001
		c4.271-3.558,10.088-5.337,17.454-5.337C421.433,18.96,427.691,20.991,432.421,25.05z"/>
	<path fill="#FFD155" d="M485.285,78.729v10.045h-8.538c-7.03,0-12.285-1.674-15.758-5.023c-3.474-3.346-5.212-8.955-5.212-16.824
		V29.759h-10.294V19.84h10.294V2.637h11.553V19.84h17.829v9.919H467.33v37.419c0,4.438,0.816,7.469,2.448,9.102
		c1.633,1.633,4.459,2.449,8.477,2.449H485.285z"/>
	<path fill="#FFD155" d="M515.709,22.664c4.351-2.637,9.544-3.954,15.57-3.954v12.431h-3.517c-6.447,0-11.719,1.653-15.82,4.959
		c-4.103,3.308-6.152,8.769-6.152,16.387v36.287h-11.427V19.84h11.427v13.936C508.05,29.005,511.355,25.301,515.709,22.664z"/>
	<path fill="#FFD155" d="M566.533,23.092c17.211,0,31.213,14.002,31.213,31.213c0,17.213-14.002,31.217-31.213,31.217
		c-17.213,0-31.215-14.004-31.215-31.217C535.318,37.094,549.32,23.092,566.533,23.092 M566.533,18.96
		c-19.521,0-35.347,15.824-35.347,35.345c0,19.523,15.826,35.348,35.347,35.348s35.345-15.824,35.345-35.348
		C601.878,34.784,586.054,18.96,566.533,18.96L566.533,18.96z"/>
	<path fill="#FFD155" d="M557.146,41.22c10.874,0,19.721,8.847,19.721,19.722c0,10.873-8.847,19.721-19.721,19.721
		s-19.721-8.848-19.721-19.721C537.426,50.066,546.272,41.22,557.146,41.22 M557.146,37.089c-13.173,0-23.853,10.681-23.853,23.853
		s10.68,23.854,23.853,23.854s23.854-10.682,23.854-23.854S570.319,37.089,557.146,37.089L557.146,37.089z"/>
	<path fill="#FF7000" d="M579.134,21.275c0,4.774-3.874,8.646-8.65,8.646c-4.772,0-8.645-3.872-8.645-8.646
		c0-4.776,3.872-8.648,8.645-8.648C575.26,12.627,579.134,16.499,579.134,21.275z"/>
	<path fill="#FF7000" d="M586.863,66.455c0,4.773-3.874,8.645-8.648,8.645c-4.775,0-8.647-3.871-8.647-8.645
		c0-4.777,3.872-8.648,8.647-8.648C582.989,57.807,586.863,61.678,586.863,66.455z"/>
</g>
</svg>
