<svg xmlns="http://www.w3.org/2000/svg" xmlns:xlink="http://www.w3.org/1999/xlink" version="1.1" id="layer" x="0px" y="0px" style="enable-background:new 244 244 512 512;" xml:space="preserve" viewBox="275 475.18 450 49.65">
<g>
	<path style="fill:#9D9FA1;" d="M299.613,475.176c-7.289,6.443-15.528,11.303-24.401,15.106l31.585,22.606L305,513.732   l-13.099-8.661c-4.225-2.852-14.789-0.845-16.901,2.746l24.296,17.007c6.761-6.444,14.894-11.619,24.507-15.528l-31.901-22.183   l1.69-1.373l10.352,7.393c5.176,3.697,9.296,4.648,20.388-0.845L299.613,475.176"/>
	<polyline style="fill:#2D3394;" points="349.049,487.535 362.887,487.535 367.007,502.007 367.007,502.007 371.127,487.535    384.859,487.535 384.859,512.359 375.986,512.359 375.986,494.612 375.88,494.612 370.704,512.359 363.31,512.359 358.028,494.612    358.028,494.612 358.028,512.359 349.049,512.359 349.049,487.535  "/>
	<path style="fill:#2D3394;" d="M402.817,495.035L402.817,495.035l-2.958,8.451h5.915L402.817,495.035 M396.69,487.535h12.042   l10.563,24.824h-10.458l-1.056-2.852h-10.247l-1.056,2.852h-10.458L396.69,487.535z"/>
	<path style="fill:#2D3394;" d="M453.098,487.535h9.824v15c0,3.169,1.796,4.226,5.07,4.226c3.169,0,5.071-1.056,5.071-4.226v-15   h9.824v15.423c0,7.922-4.754,10.247-14.895,10.247c-10.035,0-14.895-2.43-14.895-10.247V487.535"/>
	<polyline style="fill:#2D3394;" points="493.874,493.768 484.789,493.768 484.789,487.535 512.781,487.535 512.781,493.768    503.697,493.768 503.697,512.359 493.874,512.359 493.874,493.768  "/>
	<rect x="514.789" y="487.535" style="fill:#2D3394;" width="9.823" height="24.824"/>
	<path style="fill:#2D3394;" d="M430.176,493.768h6.866c1.584,0,2.852,0.423,2.852,2.324c0,1.585-0.845,2.324-2.746,2.324h-6.972   V493.768 M452.57,512.359l-8.345-7.711c6.866-1.056,6.021-7.817,6.021-10.14c0-2.746-1.479-5.07-3.38-6.021   c-1.373-0.634-3.063-0.951-5.915-0.951h-20.599v24.824h9.824v-7.605h1.69l8.24,7.605H452.57z"/>
	<path style="fill:#2D3394;" d="M556.514,501.796c-4.753-0.739-6.76-3.486-6.76-6.972c0-6.443,6.338-8.133,14.366-8.133   c11.092,0,15.633,2.852,15.951,8.133h-11.409c0-1.056-0.634-1.584-1.479-2.007c-0.846-0.422-2.007-0.528-3.064-0.528   c-2.957,0-3.908,0.739-3.908,1.796c0,0.739,0.317,1.162,1.268,1.268l11.726,1.69c4.965,0.739,8.027,3.063,8.027,7.183   c0,6.021-4.964,8.873-15.95,8.873c-7.5,0-15.738-1.057-15.844-8.345h11.83c0,0.845,0.317,1.373,1.056,1.795   c0.74,0.317,1.796,0.528,3.381,0.528c3.064,0,3.908-0.845,3.908-2.007c0-0.74-0.422-1.479-1.795-1.69L556.514,501.796"/>
	<path style="fill:#2D3394;" d="M583.873,487.535h9.824v15c0,3.169,1.796,4.226,5.07,4.226c3.169,0,5.071-1.056,5.071-4.226v-15   h9.823v15.423c0,7.922-4.753,10.247-14.894,10.247c-10.035,0-14.894-2.43-14.894-10.247V487.535"/>
	<polyline style="fill:#2D3394;" points="616.197,507.078 631.092,493.768 617.253,493.768 617.253,487.535 644.296,487.535    644.296,492.922 629.824,506.127 643.979,506.127 643.979,512.359 616.197,512.359 616.197,507.078  "/>
	<path style="fill:#2D3394;" d="M646.937,487.535h9.823v15c0,3.169,1.796,4.226,5.07,4.226c3.17,0,5.071-1.056,5.071-4.226v-15   h9.824v15.423c0,7.922-4.753,10.247-14.895,10.247c-10.034,0-14.894-2.43-14.894-10.247v-15.423"/>
	<rect x="715.176" y="487.535" style="fill:#2D3394;" width="9.824" height="24.824"/>
	<polyline style="fill:#2D3394;" points="680.951,512.359 690.457,512.359 690.246,503.486 699.859,512.359 712.324,512.359    698.698,499.683 713.064,487.535 701.126,487.535 690.457,496.091 690.457,487.535 680.951,487.535 680.951,512.359  "/>
</g>
</svg>