<svg width="160" height="32" viewBox="0 0 160 32" fill="none" xmlns="http://www.w3.org/2000/svg">
<path fill-rule="evenodd" clip-rule="evenodd" d="M25.7309 20.5099C25.7309 21.3796 25.2997 22.1844 24.5955 22.6282L22.6563 24.1827C22.4729 24.2985 22.2403 24.1576 22.2403 23.9307V14.3414C22.2403 13.84 21.9312 13.3983 21.4795 13.2543L19.0714 12.4867C18.7576 12.3866 18.4369 12.6208 18.4369 12.9504V21.5027L16.1766 18.7227C15.9078 18.555 15.5745 18.5587 15.3094 18.7321L13.1439 21.5027V12.9939C13.1439 12.6522 12.8007 12.417 12.4822 12.5401L10.3036 13.3816C9.88126 13.5445 9.60042 13.971 9.60042 14.4478V23.9286C9.60042 24.156 9.36726 24.2969 9.18335 24.1796L7.27144 22.6298C6.57196 22.1849 6.14389 21.3822 6.14389 20.5156V12.2619C6.14389 11.2816 6.6909 10.3946 7.53656 10.0032L14.8206 6.63001C15.3964 6.36332 16.0592 6.35808 16.6392 6.61534L24.3052 10.0158C25.1687 10.3988 25.7309 11.2952 25.7309 12.2897V20.5099ZM17.8291 25.5052L16.623 26.125C16.1614 26.3618 15.6138 26.3618 15.1522 26.125L13.9451 25.5052C13.8775 25.5052 13.8455 25.3951 13.8958 25.3349L15.8873 22.9431L17.8789 25.3349C17.9292 25.3951 17.8967 25.5052 17.8291 25.5052V25.5052ZM16 0C7.16351 0 0 7.16339 0 16.0003C0 24.8366 7.16351 32 16 32C24.8365 32 32 24.8366 32 16.0003C32 7.16339 24.8365 0 16 0V0Z" fill="url(#paint0_linear)"/>
<path fill-rule="evenodd" clip-rule="evenodd" d="M116.453 24C115.326 24 114.321 23.818 113.439 23.4545C112.557 23.0905 111.864 22.55 111.36 21.8322C110.856 21.1148 110.604 20.2205 110.604 19.1496V18.8665V18.5722H114.353V18.8296V19.0765C114.353 19.685 114.53 20.1684 114.883 20.5249C115.236 20.8819 115.77 21.0604 116.484 21.0604C117.191 21.0604 117.739 20.9519 118.128 20.7353C118.516 20.5183 118.711 20.1614 118.711 19.6644C118.711 19.3075 118.548 18.9855 118.222 18.6982C117.897 18.4116 117.457 18.1472 116.904 17.9057C116.351 17.6642 115.728 17.4383 115.035 17.2283C114.279 16.9908 113.572 16.6739 112.914 16.2784C112.256 15.883 111.724 15.3755 111.318 14.7561C110.912 14.1367 110.708 13.3687 110.708 12.4518C110.708 11.5139 110.962 10.7141 111.47 10.0527C111.977 9.39127 112.663 8.88383 113.528 8.53038C114.393 8.17692 115.364 8 116.442 8C117.555 8 118.548 8.17498 119.419 8.52493C120.291 8.87528 120.979 9.39321 121.483 10.0787C121.987 10.765 122.239 11.6119 122.239 12.6194V12.9134V13.1972H118.501V13.0028V12.7979C118.501 12.231 118.343 11.778 118.028 11.4385C117.713 11.0991 117.198 10.9295 116.484 10.9295C115.791 10.9295 115.256 11.0551 114.878 11.3071C114.5 11.5594 114.311 11.9374 114.311 12.4409C114.311 12.8053 114.458 13.1167 114.752 13.3757C115.046 13.6347 115.448 13.8707 115.959 14.0842C116.47 14.2977 117.051 14.5197 117.702 14.751C118.633 15.073 119.449 15.43 120.149 15.8219C120.849 16.2139 121.392 16.7034 121.776 17.2913C122.162 17.8797 122.354 18.6317 122.354 19.5489C122.354 20.5008 122.104 21.3073 121.603 21.9687C121.103 22.6301 120.408 23.1337 119.519 23.4805C118.63 23.827 117.608 24 116.453 24ZM53.1845 8.25197L51.8972 21.0316L49.8351 8.25197H45.2146L43.142 21.0386L41.8539 8.25197H38L40.2052 23.7375H45.9493L47.5244 12.1431L49.0996 23.7375H54.8332L57.0384 8.25197H53.1845ZM68.6318 11.0867V8.25201H58.8974V23.7376H68.6318V20.9029H62.6673V17.3859H67.4662V14.5512H62.6673V11.0867H68.6318ZM77.395 20.3046C77.9512 19.9057 78.3977 19.3368 78.7337 18.5988C79.0697 17.8604 79.2377 16.9839 79.2377 15.9687C79.2377 14.9468 79.0697 14.0719 78.7337 13.344C78.3977 12.6161 77.9512 12.0581 77.395 11.6696C76.8381 11.2812 76.2166 11.0868 75.5309 11.0868H74.4073V20.903H75.5309C76.2166 20.903 76.8381 20.7036 77.395 20.3046ZM81.0964 10.4203C81.7195 11.1093 82.199 11.9251 82.5347 12.8665C82.8711 13.8079 83.0391 14.8418 83.0391 15.9687C83.0391 17.0885 82.8711 18.1224 82.5347 19.0712C82.199 20.0196 81.7195 20.842 81.0964 21.5384C80.4734 22.2348 79.7328 22.7753 78.8753 23.1603C78.0177 23.5456 77.071 23.7377 76.0349 23.7377H70.6479V8.25212H76.0349C77.071 8.25212 78.0177 8.4411 78.8753 8.81905C79.7328 9.19701 80.4734 9.73049 81.0964 10.4203ZM94.0333 8.25197V20.4635L89.9799 8.25197H84.2148V23.7375H87.8692V11.7282L91.8701 23.7375H97.6771V8.25197H94.0333ZM109.428 8.25201V11.0867H103.463V14.5512H108.262V17.3859H103.463V20.9029H109.428V23.7376H99.6933V8.25201H109.428ZM130.278 20.3046C130.834 19.9057 131.28 19.3368 131.616 18.5988C131.952 17.8604 132.12 16.9839 132.12 15.9687C132.12 14.9468 131.952 14.0719 131.616 13.344C131.28 12.6161 130.834 12.0581 130.278 11.6696C129.721 11.2812 129.099 11.0868 128.414 11.0868H127.29V20.903H128.414C129.099 20.903 129.721 20.7036 130.278 20.3046ZM133.979 10.4203C134.602 11.1093 135.082 11.9251 135.417 12.8665C135.754 13.8079 135.922 14.8418 135.922 15.9687C135.922 17.0885 135.754 18.1224 135.417 19.0712C135.082 20.0196 134.602 20.842 133.979 21.5384C133.356 22.2348 132.616 22.7753 131.758 23.1603C130.9 23.5456 129.954 23.7377 128.918 23.7377H123.531V8.25212H128.918C129.954 8.25212 130.9 8.4411 131.758 8.81905C132.616 9.19701 133.356 9.73049 133.979 10.4203ZM135.753 23.7376L139.481 8.24155H145.425L149.143 23.7376H145.299L142.464 10.5464L142.474 10.4988H142.453L142.464 10.5464L139.586 23.7376H135.753ZM153.589 14.6663L156.021 8.25197H160L155.453 18.4151V23.7375H151.715V18.4151L147.199 8.25197H151.159L153.589 14.6663Z" fill="#312F4F"/>
<defs>
<linearGradient id="paint0_linear" x1="99.8379" y1="32.1074" x2="32.8105" y2="-33.5137" gradientUnits="userSpaceOnUse">
<stop stop-color="#743AE8"/>
<stop offset="1" stop-color="#3A48E8"/>
</linearGradient>
</defs>
</svg>
