<svg width="27" height="26" viewBox="0 0 27 26" fill="none" xmlns="http://www.w3.org/2000/svg">
    <path
        d="M18.65 9.03968C16.39 6.09445 9.2505 -2.54312 5.57068 0.728498C4.65891 1.53903 5.1066 2.61039 6.27319 3.75492C9.88107 4.46218 14.5746 6.35289 18.65 9.03968Z"
        fill="url(#paint0_linear_82_9)" />
    <path
        d="M23.5766 16.9067C23.2856 17.1719 22.6285 17.0731 22.1088 16.6864C21.5902 16.2993 21.4059 15.7702 21.6969 15.505C21.9879 15.2397 22.645 15.3379 23.1639 15.7249C23.6832 16.1123 23.8675 16.6415 23.5766 16.9067ZM26.8699 19.4632C26.8663 19.4495 26.8649 19.4354 26.8609 19.4213C23.9999 8.62668 1.86409 0.293195 0.0755204 5.43166C-1.26028 9.26935 15.5669 11.502 15.5669 11.502C15.9198 11.5527 16.1886 11.806 16.1886 12.1113C16.1886 12.4275 15.9 12.6854 15.5284 12.7226C5.68202 12.3942 3.9195 17.3906 3.9195 17.3906C2.04926 22.3845 7.84205 26 7.84205 26C5.04952 16.7448 17.0797 20.6078 17.0797 20.6078C26.9994 23.4021 27.3477 21.1777 26.8699 19.4632Z"
        fill="url(#paint1_linear_82_9)" />
    <defs>
        <linearGradient id="paint0_linear_82_9" x1="5.08447" y1="9.03968" x2="5.08447" y2="-894.928"
            gradientUnits="userSpaceOnUse">
            <stop />
            <stop offset="1" />
        </linearGradient>
        <linearGradient id="paint1_linear_82_9" x1="0" y1="26" x2="0" y2="-2186.53"
            gradientUnits="userSpaceOnUse">
            <stop />
            <stop offset="1" />
        </linearGradient>
    </defs>
</svg>