<svg width="280" height="50" viewBox="-4.76837158203125e-7 0 158.0000003874302 181"
    xmlns="http://www.w3.org/2000/svg">
    <title>Keploy Logo</title>
    <defs>
        <linearGradient id="linearGradient-1" x1="0%" y1="0%" x2="0%" y2="100%">
            <stop offset="0%" stop-color="#D3D3D3" />
            <stop offset="100%" stop-color="#D3D3D3" />
        </linearGradient>
        <linearGradient id="linearGradient-2" x1="0%" y1="0%" x2="0%" y2="100%">
            <stop offset="0%" stop-color="#D3D3D3" />
            <stop offset="100%" stop-color="#D3D3D3" />
        </linearGradient>
    </defs>
    <g id="Material-Design-Stickersheet" fill="none" fill-rule="evenodd">
        <g id="Group-42" fill-rule="nonzero">
            <g id="Group">
                <g
                    transform="translate(69.445132, 31.465016) scale(-1, 1) rotate(-180) translate(-69.445132, -31.465016) translate(29.753349, 0)">
                    <path id="Path" fill="url(#linearGradient-1)"
                        d="M79.3835657,0 C66.1582528,20.5033 24.3789726,80.6340984 2.84521939,57.858588 C-2.49031097,52.2160621 0.129493916,44.7577397 6.95619149,36.7900083 C28.0689831,31.8664064 55.5347335,18.7041415 79.3835657,0" />
                </g>
                <g
                    transform="translate(79, 103.987014) scale(-1, 1) rotate(-180) translate(-79, -103.987014) translate(0, 26.974027)">
                    <path id="Shape" fill="url(#linearGradient-2)"
                        d="M137.966507,63.3031017 C136.263812,61.4571104 132.418611,62.1446071 129.377635,64.8370799 C126.342942,67.5316069 125.264359,71.2153731 126.967054,73.0615698 C128.669749,74.9079719 132.51495,74.2247888 135.551738,71.5302618 C138.590619,68.83327 139.669202,65.1497092 137.966507,63.3031017 Z M157.238587,45.5058314 C157.217643,45.6017564 157.209266,45.69953 157.186228,45.7979199 C140.444106,120.944985 10.9083785,178.958861 0.441934448,143.18726 C-7.37496518,116.471019 91.095477,100.928089 91.095477,100.928089 C93.1600734,100.575405 94.7331292,98.8117821 94.7331292,96.6864376 C94.7331292,94.4850925 93.0442566,92.6900421 90.8701264,92.4312295 C33.250336,94.7172022 22.9363595,59.9344295 22.9363595,59.9344295 C11.991988,25.1695272 45.8904914,0 45.8904914,0 C29.549016,64.4305798 99.9480258,37.5376892 99.9480258,37.5376892 C157.996736,18.0856615 160.034525,33.5702561 157.238587,45.5058314" />
                </g>
            </g>
        </g>
    </g>
</svg>